<svg width="361" height="69" viewBox="0 0 361 69" fill="none" xmlns="http://www.w3.org/2000/svg">
<g clip-path="url(#clip0_62_1198)">
<rect y="0.23999" width="87.25" height="32" fill="#32949B" fill-opacity="0.25"/>
<rect x="91.25" y="0.23999" width="87.25" height="32" fill="#32949B" fill-opacity="0.1"/>
<rect x="182.5" y="0.23999" width="87.25" height="32" fill="#32949B" fill-opacity="0.1"/>
<rect x="273.75" y="0.23999" width="87.25" height="32" fill="#32949B" fill-opacity="0.1"/>
</g>
<path d="M341.678 62.59C339.13 62.59 337.45 60.378 337.45 57.298C337.45 54.218 339.13 52.02 341.678 52.02C344.226 52.02 345.92 54.218 345.92 57.298C345.92 60.392 344.226 62.59 341.678 62.59ZM341.678 61.47C343.484 61.47 344.646 59.72 344.646 57.298C344.646 54.876 343.484 53.14 341.678 53.14C339.872 53.14 338.724 54.876 338.724 57.298C338.724 59.734 339.886 61.47 341.678 61.47ZM350.31 57.452C348.63 57.452 347.482 56.304 347.482 54.624C347.482 52.958 348.63 51.81 350.31 51.81C351.99 51.81 353.138 52.958 353.138 54.624C353.138 56.304 351.99 57.452 350.31 57.452ZM349.568 62.24L356.792 51.95H358.206L350.996 62.24H349.568ZM350.31 56.262C351.29 56.262 351.934 55.604 351.934 54.624C351.934 53.658 351.29 53 350.31 53C349.344 53 348.672 53.658 348.672 54.624C348.672 55.604 349.344 56.262 350.31 56.262ZM357.464 62.38C355.798 62.38 354.65 61.232 354.65 59.552C354.65 57.886 355.798 56.724 357.464 56.724C359.144 56.724 360.292 57.886 360.292 59.552C360.292 61.232 359.144 62.38 357.464 62.38ZM357.464 61.176C358.444 61.176 359.102 60.518 359.102 59.552C359.102 58.586 358.444 57.914 357.464 57.914C356.512 57.914 355.84 58.586 355.84 59.552C355.84 60.518 356.512 61.176 357.464 61.176Z" fill="#333333"/>
<defs>
<clipPath id="clip0_62_1198">
<rect y="0.23999" width="361" height="32" rx="16" fill="white"/>
</clipPath>
</defs>
</svg>
