<svg width="134" height="48" viewBox="0 0 134 48" fill="none" xmlns="http://www.w3.org/2000/svg">
<path d="M1.35298 31.5319C1.17532 31.5348 0.998938 31.5014 0.834686 31.4336C0.670433 31.3658 0.521776 31.2652 0.397855 31.1378C0.269458 31.0153 0.167839 30.8674 0.0993967 30.7037C0.0309542 30.5399 -0.00282621 30.3637 0.000184984 30.1863V7.10708C-0.00437861 6.16707 0.185411 5.23626 0.557638 4.37308C0.921417 3.52413 1.44451 2.75274 2.09862 2.10066C2.7511 1.45305 3.51956 0.933918 4.36393 0.570335C5.2412 0.195295 6.18647 0.00550986 7.14052 0.0128818C9.29426 -0.00289376 11.4292 0.414915 13.4181 1.24141C15.3014 2.02166 17.0132 3.16407 18.4564 4.60386C19.8849 6.04409 21.026 7.74317 21.8189 9.61028C22.6522 11.5749 23.0728 13.6899 23.0545 15.8239C23.0465 17.7273 22.6854 19.6126 21.9893 21.3842C21.2836 23.2216 20.2556 24.9182 18.9535 26.3942C17.6303 27.8887 16.0395 29.123 14.2631 30.0336C12.3919 30.9883 10.3274 31.5033 8.22702 31.539L1.35298 31.5319ZM2.69512 28.8441H8.12406C9.85505 28.8282 11.558 28.4049 13.095 27.6085C14.5657 26.8511 15.8762 25.8166 16.9545 24.562C18.0115 23.3328 18.852 21.9328 19.44 20.422C20.0245 18.9531 20.3269 17.3871 20.3312 15.8062C20.3436 14.0399 19.9932 12.29 19.3015 10.6648C17.9753 7.51659 15.4623 5.01759 12.3067 3.70911C10.654 3.01862 8.87835 2.67074 7.08726 2.68653C6.49134 2.68363 5.90131 2.80454 5.35455 3.04159C4.84165 3.26363 4.3745 3.57907 3.9769 3.97186C3.57738 4.37219 3.25908 4.84602 3.03953 5.36726C2.80542 5.90246 2.68453 6.48029 2.68447 7.06445L2.69512 28.8441Z" fill="#333333"/>
<path d="M48.9214 28.8443H29.9291V17.1272H43.2298C43.4074 17.1301 43.5838 17.0966 43.7481 17.0289C43.9123 16.9611 44.061 16.8604 44.1849 16.7331C44.311 16.6092 44.4112 16.4613 44.4796 16.2983C44.548 16.1352 44.5832 15.9601 44.5832 15.7833C44.5832 15.6065 44.548 15.4314 44.4796 15.2683C44.4112 15.1053 44.311 14.9574 44.1849 14.8335C44.061 14.7061 43.9123 14.6055 43.7481 14.5377C43.5838 14.4699 43.4074 14.4365 43.2298 14.4394H29.9291V2.72225H48.9214C49.189 2.72541 49.4513 2.64854 49.6749 2.50151C49.8984 2.35448 50.0729 2.144 50.1759 1.89709C50.2789 1.65018 50.3058 1.37812 50.2531 1.11581C50.2004 0.853509 50.0705 0.612941 49.8801 0.424995C49.755 0.298217 49.6057 0.197961 49.4409 0.130242C49.2762 0.0625236 49.0995 0.0287167 48.9214 0.0308574H28.5727C28.3952 0.0287886 28.219 0.0626439 28.0549 0.130372C27.8908 0.198101 27.742 0.298321 27.6176 0.424995C27.4894 0.547684 27.3878 0.695526 27.3194 0.859268C27.251 1.02301 27.2171 1.19912 27.2199 1.37656V30.2113C27.2169 30.3888 27.2507 30.565 27.3191 30.7287C27.3876 30.8925 27.4892 31.0404 27.6176 31.1629C27.7415 31.2903 27.8902 31.3909 28.0544 31.4587C28.2187 31.5265 28.395 31.5599 28.5727 31.557H48.9214C49.1037 31.5664 49.286 31.5386 49.4572 31.4753C49.6284 31.412 49.785 31.3145 49.9173 31.1888C50.0497 31.0631 50.1551 30.9117 50.2271 30.744C50.2991 30.5763 50.3362 30.3956 50.3362 30.2131C50.3362 30.0306 50.2991 29.8499 50.2271 29.6822C50.1551 29.5145 50.0497 29.3631 49.9173 29.2374C49.785 29.1117 49.6284 29.0142 49.4572 28.9509C49.286 28.8876 49.1037 28.8598 48.9214 28.8692V28.8443Z" fill="#333333"/>
<path d="M76.1441 31.5356C75.9262 31.5416 75.7103 31.4939 75.5152 31.3967C75.3202 31.2995 75.152 31.1557 75.0257 30.9782L57.1482 5.52716V30.1899C57.1512 30.3674 57.1174 30.5436 57.049 30.7073C56.9805 30.8711 56.8789 31.0189 56.7505 31.1415C56.4969 31.3943 56.1534 31.5363 55.7954 31.5363C55.4373 31.5363 55.0938 31.3943 54.8402 31.1415C54.7118 31.0189 54.6102 30.8711 54.5418 30.7073C54.4733 30.5436 54.4396 30.3674 54.4426 30.1899V1.35516C54.4444 1.07232 54.5337 0.796977 54.6982 0.566903C54.8616 0.327034 55.1002 0.148395 55.3764 0.0591633C55.6544 -0.0236851 55.951 -0.0194279 56.2265 0.0713426C56.502 0.162113 56.7431 0.335042 56.9174 0.566903L74.7913 26.0179V1.35516C74.7886 1.17825 74.8225 1.00269 74.8909 0.839529C74.9594 0.676372 75.0608 0.529136 75.189 0.407119C75.3129 0.279777 75.4615 0.179125 75.6258 0.111348C75.7901 0.043571 75.9664 0.0101065 76.1441 0.0130032C76.3222 0.0104532 76.4991 0.0440605 76.6638 0.111803C76.8286 0.179546 76.9779 0.28001 77.1028 0.407119C77.2297 0.529834 77.3302 0.677279 77.398 0.840331C77.4658 1.00338 77.4994 1.17859 77.4969 1.35516V30.1899C77.5186 30.4858 77.4355 30.78 77.2622 31.0208C77.0889 31.2616 76.8364 31.4338 76.5489 31.5072C76.4161 31.5367 76.2797 31.5462 76.1441 31.5356Z" fill="#333333"/>
<path d="M104.322 0.396394C104.449 0.515983 104.55 0.660743 104.619 0.8215C104.687 0.982257 104.721 1.1555 104.719 1.33021C104.724 1.51214 104.691 1.69311 104.623 1.86175C104.554 2.03039 104.452 2.18306 104.322 2.3102C104.188 2.43837 104.031 2.53862 103.858 2.60508C103.686 2.67154 103.502 2.70286 103.317 2.6972H94.5432V30.1863C94.5449 30.3649 94.5091 30.5418 94.4381 30.7057C94.3672 30.8696 94.2627 31.0168 94.1314 31.1379C94.0049 31.2638 93.8548 31.3634 93.6896 31.4311C93.5245 31.4987 93.3476 31.533 93.1691 31.532C92.9936 31.5348 92.8194 31.5013 92.6574 31.4334C92.4955 31.3656 92.3493 31.265 92.2282 31.1379C92.1016 31.0143 92.0016 30.8661 91.9345 30.7025C91.8673 30.5388 91.8344 30.3632 91.8376 30.1863V2.6972H83.0178C82.8378 2.69964 82.6592 2.66575 82.4926 2.59756C82.326 2.52936 82.1749 2.42828 82.0483 2.30034C81.9216 2.17239 81.8221 2.0202 81.7557 1.85291C81.6892 1.68561 81.6572 1.50662 81.6615 1.32666C81.6595 1.15195 81.6937 0.978703 81.7622 0.817946C81.8307 0.657189 81.9318 0.512429 82.0592 0.39284C82.1844 0.266538 82.3339 0.166849 82.4987 0.0997341C82.6634 0.0326193 82.84 -0.00052947 83.0178 0.0022778H103.317C103.502 -0.00305097 103.687 0.0291066 103.859 0.0968301C104.032 0.164554 104.189 0.266444 104.322 0.396394Z" fill="#333333"/>
<path d="M133.455 4.36598C133.094 3.51651 132.572 2.74487 131.917 2.09356C131.265 1.44595 130.496 0.926816 129.652 0.563234C128.775 0.188193 127.83 -0.0015702 126.875 0.00580175C124.722 -0.00997382 122.587 0.407813 120.598 1.23431C118.714 2.01448 117.001 3.1569 115.556 4.59678C114.13 6.03814 112.99 7.73697 112.197 9.60318C111.364 11.5678 110.943 13.6828 110.962 15.8168C110.969 17.7202 111.331 19.6055 112.027 21.3771C112.731 23.2143 113.758 24.9109 115.059 26.3871C116.384 27.881 117.976 29.1151 119.753 30.0265C120.946 30.6416 122.226 31.0714 123.549 31.3011C123.741 31.3326 123.939 31.3217 124.127 31.2692C124.315 31.2167 124.489 31.1239 124.638 30.9972C124.787 30.8705 124.906 30.713 124.988 30.5355C125.069 30.3581 125.111 30.165 125.111 29.9697C125.108 29.6493 124.991 29.3403 124.782 29.0978C124.573 28.8552 124.284 28.6949 123.968 28.6453C122.896 28.4574 121.86 28.1052 120.896 27.6014C119.422 26.8472 118.108 25.8152 117.026 24.562C115.97 23.3317 115.13 21.9321 114.541 20.422C113.959 18.9524 113.658 17.3867 113.653 15.8062C113.64 14.04 113.991 12.29 114.683 10.6648C116.009 7.5166 118.522 5.0176 121.677 3.70912C123.33 3.01863 125.106 2.67075 126.897 2.68653C127.492 2.68288 128.081 2.80383 128.626 3.0416C129.196 3.28393 129.709 3.6443 130.13 4.09901C130.551 4.55372 130.871 5.09244 131.069 5.67972C131.222 6.1252 131.299 6.59337 131.296 7.06446V22.9145V30.1827C131.297 30.3599 131.332 30.5352 131.4 30.6988C131.468 30.8623 131.568 31.0108 131.694 31.1357C131.819 31.2607 131.968 31.3597 132.132 31.4271C132.296 31.4944 132.472 31.5289 132.649 31.5284C132.827 31.5313 133.003 31.4978 133.167 31.43C133.331 31.3623 133.48 31.2616 133.604 31.1343C133.732 31.0117 133.834 30.8639 133.902 30.7001C133.971 30.5363 134.005 30.3602 134.002 30.1827V7.10353C134.012 6.16292 133.825 5.23055 133.455 4.36598Z" fill="#333333"/>
<path d="M2.38846e-10 43.7463C-3.80758e-06 43.6311 0.0455223 43.5205 0.126659 43.4387C0.207795 43.3569 0.317967 43.3105 0.433179 43.3096H2.07357C3.62165 43.3096 4.47026 44.3144 4.47026 45.5252C4.48097 45.8438 4.42545 46.1612 4.3072 46.4573C4.18896 46.7534 4.01057 47.0217 3.78331 47.2452C3.55604 47.4688 3.28485 47.6429 2.98689 47.7563C2.68893 47.8697 2.37069 47.92 2.05227 47.9041H0.433179C0.317967 47.9032 0.207795 47.8567 0.126659 47.7749C0.0455223 47.6931 -3.80758e-06 47.5826 2.38846e-10 47.4674V43.7463ZM1.1149 46.5868C1.11442 46.6438 1.12531 46.7004 1.14692 46.7531C1.16852 46.8059 1.2004 46.8539 1.24072 46.8942C1.28104 46.9345 1.32898 46.9664 1.38175 46.988C1.43452 47.0096 1.49106 47.0205 1.54808 47.02H1.90314C2.80145 47.02 3.2879 46.5158 3.2879 45.5394C3.2879 44.6908 2.84407 44.1617 1.9209 44.1511H1.54808C1.49089 44.1511 1.43428 44.1624 1.38149 44.1844C1.3287 44.2064 1.28079 44.2386 1.24051 44.2792C1.20024 44.3198 1.16841 44.368 1.14685 44.4209C1.12529 44.4739 1.11443 44.5306 1.1149 44.5878V46.5868Z" fill="#333333"/>
<path d="M15.3671 45.9654H13.6734C13.5586 45.9654 13.4484 46.0111 13.3671 46.0923C13.2859 46.1736 13.2403 46.2837 13.2403 46.3986V46.5762C13.2403 46.6911 13.2859 46.8012 13.3671 46.8825C13.4484 46.9637 13.5586 47.0093 13.6734 47.0093H15.5872C15.6496 47.0092 15.7113 47.0225 15.7681 47.0484C15.8248 47.0742 15.8754 47.1121 15.9162 47.1593C15.957 47.2065 15.9871 47.2619 16.0044 47.3218C16.0218 47.3818 16.0261 47.4447 16.0169 47.5064V47.5313C15.9985 47.6316 15.9453 47.7222 15.8667 47.7871C15.7882 47.852 15.6892 47.8872 15.5872 47.8864H12.5621C12.4469 47.8854 12.3367 47.839 12.2556 47.7572C12.1744 47.6754 12.1289 47.5648 12.1289 47.4496V43.7463C12.1289 43.6311 12.1744 43.5205 12.2556 43.4387C12.3367 43.3569 12.4469 43.3105 12.5621 43.3096H15.5091C15.5663 43.3096 15.6229 43.3209 15.6757 43.3429C15.7285 43.3649 15.7764 43.3971 15.8167 43.4377C15.857 43.4783 15.8888 43.5265 15.9103 43.5794C15.9319 43.6324 15.9428 43.6891 15.9423 43.7463V43.7676C15.9428 43.8248 15.9319 43.8815 15.9103 43.9345C15.8888 43.9874 15.857 44.0356 15.8167 44.0762C15.7764 44.1168 15.7285 44.149 15.6757 44.171C15.6229 44.193 15.5663 44.2043 15.5091 44.2043H13.677C13.6192 44.2039 13.5619 44.2149 13.5085 44.2369C13.455 44.2589 13.4065 44.2914 13.3658 44.3324C13.3251 44.3735 13.2931 44.4222 13.2715 44.4758C13.2499 44.5295 13.2393 44.5868 13.2403 44.6446C13.2403 44.7598 13.2858 44.8704 13.3669 44.9522C13.448 45.034 13.5582 45.0804 13.6734 45.0813H15.3671C15.4823 45.0813 15.5928 45.1269 15.6747 45.208C15.7565 45.2891 15.8029 45.3993 15.8038 45.5145V45.5358C15.802 45.6504 15.7551 45.7597 15.6734 45.8401C15.5917 45.9204 15.4817 45.9655 15.3671 45.9654Z" fill="#333333"/>
<path d="M27.0841 46.4199C27.0874 46.4298 27.0944 46.438 27.1038 46.4426C27.1131 46.4473 27.1239 46.4481 27.1338 46.4448C27.1436 46.4415 27.1518 46.4344 27.1565 46.4251C27.1611 46.4158 27.1619 46.405 27.1586 46.3951C27.1267 45.898 27.1338 45.1381 27.1338 44.46V43.7498C27.1338 43.6346 27.1793 43.5241 27.2604 43.4423C27.3416 43.3605 27.4517 43.3141 27.5669 43.3131H27.7196C27.7768 43.3131 27.8334 43.3244 27.8862 43.3464C27.939 43.3684 27.9869 43.4006 28.0272 43.4412C28.0675 43.4818 28.0993 43.53 28.1209 43.583C28.1424 43.636 28.1533 43.6927 28.1528 43.7498V47.4851C28.1533 47.5423 28.1424 47.599 28.1209 47.652C28.0993 47.705 28.0675 47.7531 28.0272 47.7937C27.9869 47.8343 27.939 47.8666 27.8862 47.8885C27.8334 47.9105 27.7768 47.9219 27.7196 47.9219H27.1515C27.0804 47.921 27.0107 47.9023 26.9487 47.8676C26.8867 47.8328 26.8344 47.7831 26.7965 47.723L24.7868 44.5274C24.7868 44.5208 24.7842 44.5145 24.7795 44.5099C24.7748 44.5052 24.7685 44.5026 24.7619 44.5026C24.7553 44.5026 24.749 44.5052 24.7444 44.5099C24.7397 44.5145 24.7371 44.5208 24.7371 44.5274C24.7726 45.0707 24.7726 45.6921 24.7726 46.4625V47.4851C24.7726 47.5425 24.7613 47.5993 24.7393 47.6523C24.7174 47.7052 24.6852 47.7534 24.6447 47.7939C24.6041 47.8345 24.556 47.8667 24.503 47.8886C24.45 47.9106 24.3932 47.9219 24.3359 47.9219H24.1832C24.068 47.9209 23.9578 47.8745 23.8767 47.7927C23.7955 47.7109 23.75 47.6003 23.75 47.4851V43.7463C23.75 43.6311 23.7955 43.5205 23.8767 43.4387C23.9578 43.3569 24.068 43.3105 24.1832 43.3096H24.8365C24.9074 43.3111 24.9769 43.33 25.0388 43.3647C25.1007 43.3994 25.1532 43.4487 25.1916 43.5084L27.0841 46.4199Z" fill="#333333"/>
<path d="M36.9903 44.1973H36.2447C36.1878 44.1973 36.1315 44.1861 36.0789 44.1643C36.0264 44.1426 35.9786 44.1107 35.9384 44.0704C35.8982 44.0302 35.8663 43.9825 35.8445 43.9299C35.8227 43.8773 35.8115 43.821 35.8115 43.7641C35.8115 43.6489 35.857 43.5384 35.9382 43.4566C36.0193 43.3748 36.1295 43.3283 36.2447 43.3274H39.7172C39.7744 43.3274 39.831 43.3387 39.8838 43.3607C39.9366 43.3827 39.9845 43.4149 40.0248 43.4555C40.0651 43.4961 40.0969 43.5443 40.1185 43.5973C40.14 43.6502 40.1509 43.707 40.1504 43.7641C40.1504 43.879 40.1048 43.9892 40.0235 44.0704C39.9423 44.1517 39.8321 44.1973 39.7172 44.1973H38.9751C38.8606 44.2019 38.7524 44.2514 38.674 44.3352C38.5956 44.4189 38.5533 44.53 38.5562 44.6447V47.4852C38.5562 47.601 38.5102 47.7121 38.4283 47.794C38.3464 47.8759 38.2353 47.9219 38.1194 47.9219H37.846C37.7308 47.921 37.6207 47.8746 37.5395 47.7928C37.4584 47.711 37.4129 47.6004 37.4129 47.4852V44.6447C37.4157 44.5294 37.3729 44.4177 37.2938 44.3339C37.2146 44.2501 37.1056 44.201 36.9903 44.1973Z" fill="#333333"/>
<path d="M49.2476 47.13L49.0629 47.6128C49.0305 47.6949 48.9743 47.7654 48.9016 47.8154C48.8288 47.8653 48.7429 47.8925 48.6546 47.8934H48.4522C48.3808 47.8936 48.3104 47.8761 48.2473 47.8426C48.1842 47.809 48.1304 47.7604 48.0907 47.701C48.0509 47.6415 48.0265 47.5732 48.0196 47.5021C48.0127 47.431 48.0235 47.3592 48.051 47.2933L49.5636 43.5793C49.5955 43.4989 49.6508 43.4299 49.7223 43.3811C49.7938 43.3324 49.8783 43.3062 49.9648 43.3059H50.8134C50.8989 43.3065 50.9824 43.3321 51.0537 43.3794C51.1249 43.4266 51.1808 43.4936 51.2146 43.5722L52.7911 47.2933C52.8192 47.3596 52.8305 47.4319 52.8239 47.5036C52.8173 47.5754 52.7931 47.6444 52.7534 47.7045C52.7137 47.7646 52.6597 47.814 52.5963 47.8481C52.5328 47.8823 52.4619 47.9003 52.3899 47.9004H52.1307C52.0447 47.9 51.9607 47.8741 51.8893 47.8261C51.818 47.7781 51.7624 47.7101 51.7295 47.6306L51.5235 47.1264C51.4907 47.0469 51.4351 46.9789 51.3637 46.9309C51.2923 46.8829 51.2083 46.857 51.1223 46.8566H49.6666C49.577 46.8532 49.4887 46.8777 49.4136 46.9267C49.3386 46.9756 49.2806 47.0467 49.2476 47.13ZM50.4442 45.9582C50.5153 45.9576 50.5852 45.9396 50.6478 45.9058C50.7104 45.872 50.7638 45.8234 50.8034 45.7643C50.8429 45.7051 50.8674 45.6372 50.8748 45.5665C50.8821 45.4957 50.872 45.4242 50.8454 45.3582C50.5755 44.6871 50.4299 44.293 50.3412 44.016C50.2631 44.2823 50.0997 44.7546 49.8725 45.3688C49.8479 45.4348 49.8396 45.5058 49.8483 45.5757C49.857 45.6456 49.8826 45.7123 49.9227 45.7702C49.9628 45.8281 50.0163 45.8754 50.0787 45.9082C50.141 45.9409 50.2104 45.9581 50.2808 45.9582H50.4442Z" fill="#333333"/>
<path d="M61.121 43.3096H61.366C61.4819 43.3096 61.5929 43.3556 61.6748 43.4375C61.7567 43.5194 61.8028 43.6305 61.8028 43.7463V46.5868C61.8028 46.7017 61.8484 46.8119 61.9296 46.8931C62.0109 46.9743 62.1211 47.02 62.2359 47.02H63.8621C63.9249 47.0202 63.9869 47.034 64.0438 47.0605C64.1007 47.087 64.1512 47.1256 64.1917 47.1736C64.2323 47.2215 64.2619 47.2777 64.2786 47.3383C64.2952 47.3988 64.2985 47.4622 64.2882 47.5242V47.549C64.2692 47.649 64.2158 47.7392 64.1374 47.804C64.059 47.8689 63.9603 47.9042 63.8586 47.9041H61.1246C61.0094 47.9032 60.8992 47.8567 60.8181 47.7749C60.7369 47.6931 60.6914 47.5826 60.6914 47.4674V43.7463C60.6914 43.6317 60.7364 43.5217 60.8168 43.44C60.8972 43.3583 61.0064 43.3114 61.121 43.3096Z" fill="#333333"/>
<path d="M111.987 46.4199C111.989 46.4248 111.992 46.4294 111.995 46.4333C111.998 46.4372 112.002 46.4403 112.007 46.4426C112.012 46.445 112.017 46.4463 112.022 46.4467C112.027 46.4471 112.032 46.4464 112.037 46.4448C112.042 46.4432 112.047 46.4406 112.05 46.4372C112.054 46.4338 112.057 46.4297 112.06 46.4251C112.062 46.4205 112.063 46.4154 112.064 46.4103C112.064 46.4051 112.064 46.4 112.062 46.3951C112.03 45.898 112.037 45.1381 112.037 44.46V43.7498C112.037 43.6927 112.047 43.636 112.069 43.583C112.091 43.53 112.122 43.4818 112.163 43.4412C112.203 43.4006 112.251 43.3684 112.304 43.3464C112.356 43.3244 112.413 43.3131 112.47 43.3131H112.623C112.738 43.3141 112.848 43.3605 112.929 43.4423C113.011 43.5241 113.056 43.6346 113.056 43.7498V47.4851C113.056 47.6003 113.011 47.7109 112.929 47.7927C112.848 47.8745 112.738 47.9209 112.623 47.9219H112.055C111.984 47.921 111.914 47.9023 111.852 47.8676C111.79 47.8328 111.738 47.7831 111.7 47.723L109.69 44.5274C109.69 44.5208 109.688 44.5145 109.683 44.5099C109.678 44.5052 109.672 44.5026 109.665 44.5026C109.659 44.5026 109.652 44.5052 109.648 44.5099C109.643 44.5145 109.64 44.5208 109.64 44.5274C109.672 45.0707 109.672 45.6921 109.672 46.4625V47.4851C109.673 47.5423 109.662 47.599 109.64 47.652C109.619 47.705 109.587 47.7531 109.547 47.7937C109.506 47.8343 109.459 47.8666 109.406 47.8885C109.353 47.9105 109.296 47.9219 109.239 47.9219H109.087C108.971 47.9209 108.861 47.8745 108.78 47.7927C108.699 47.7109 108.653 47.6003 108.653 47.4851V43.7463C108.653 43.6311 108.699 43.5205 108.78 43.4387C108.861 43.3569 108.971 43.3105 109.087 43.3096H109.736C109.807 43.3114 109.877 43.3305 109.938 43.3651C110 43.3998 110.053 43.4489 110.091 43.5084L111.987 46.4199Z" fill="#333333"/>
<path d="M80.2058 46.4447C80.284 46.4455 80.3604 46.4674 80.4271 46.5082C80.4938 46.5489 80.5482 46.6069 80.5846 46.6761C80.621 46.7452 80.638 46.8229 80.6338 46.9009C80.6297 46.979 80.6045 47.0544 80.5609 47.1193C80.2058 47.6235 79.5916 47.9999 78.5726 47.9999C76.9322 47.9999 76.1404 46.8636 76.1404 45.6103C76.1324 45.2857 76.1919 44.9631 76.3152 44.6628C76.4384 44.3625 76.6227 44.0911 76.8564 43.8658C77.0901 43.6404 77.368 43.4661 77.6726 43.3538C77.9772 43.2416 78.3018 43.1938 78.6258 43.2136C79.6129 43.2136 80.252 43.5971 80.5929 44.0942C80.6346 44.1589 80.6582 44.2336 80.6614 44.3106C80.6646 44.3876 80.6472 44.464 80.6111 44.532C80.5749 44.6 80.5212 44.6572 80.4556 44.6975C80.39 44.7379 80.3148 44.76 80.2378 44.7617H80.0212C79.9502 44.7605 79.8806 44.7417 79.8186 44.707C79.7567 44.6723 79.7043 44.6227 79.6662 44.5628C79.5549 44.395 79.3997 44.2609 79.2176 44.1751C79.0354 44.0894 78.8332 44.0552 78.6329 44.0764C77.7772 44.0764 77.3298 44.7297 77.3298 45.5712C77.3298 46.4127 77.7382 47.1406 78.64 47.1406C78.8382 47.166 79.0394 47.1335 79.2195 47.0473C79.3997 46.961 79.5511 46.8244 79.6555 46.6542C79.6926 46.5925 79.7445 46.541 79.8065 46.5045C79.8685 46.4679 79.9386 46.4473 80.0106 46.4447H80.2058Z" fill="#333333"/>
<path d="M88.9758 43.3096H89.2208C89.336 43.3105 89.4462 43.3569 89.5273 43.4387C89.6084 43.5205 89.654 43.6311 89.6539 43.7463V46.5868C89.6549 46.702 89.7013 46.8122 89.7831 46.8933C89.8649 46.9745 89.9755 47.02 90.0907 47.02H91.7133C91.7764 47.0197 91.8388 47.0331 91.8962 47.0594C91.9535 47.0857 92.0044 47.1242 92.0453 47.1722C92.0863 47.2202 92.1162 47.2766 92.1331 47.3374C92.1499 47.3982 92.1533 47.4619 92.143 47.5242V47.549C92.1239 47.649 92.0706 47.7392 91.9921 47.804C91.9137 47.8689 91.8151 47.9042 91.7133 47.9041H88.9758C88.86 47.9041 88.7489 47.8581 88.667 47.7762C88.5851 47.6943 88.5391 47.5832 88.5391 47.4674V43.7463C88.5391 43.6305 88.5851 43.5194 88.667 43.4375C88.7489 43.3556 88.86 43.3096 88.9758 43.3096Z" fill="#333333"/>
<path d="M100.991 43.7463V47.4851C100.992 47.5423 100.981 47.599 100.959 47.652C100.938 47.705 100.906 47.7531 100.866 47.7937C100.825 47.8343 100.777 47.8666 100.725 47.8885C100.672 47.9105 100.615 47.9219 100.558 47.9219H100.313C100.256 47.9219 100.199 47.9105 100.146 47.8885C100.094 47.8666 100.046 47.8343 100.006 47.7937C99.9652 47.7531 99.9334 47.705 99.9118 47.652C99.8903 47.599 99.8794 47.5423 99.8799 47.4851V43.7463C99.8794 43.6891 99.8903 43.6324 99.9118 43.5794C99.9334 43.5265 99.9652 43.4783 100.006 43.4377C100.046 43.3971 100.094 43.3649 100.146 43.3429C100.199 43.3209 100.256 43.3096 100.313 43.3096H100.558C100.615 43.3096 100.672 43.3209 100.725 43.3429C100.777 43.3649 100.825 43.3971 100.866 43.4377C100.906 43.4783 100.938 43.5265 100.959 43.5794C100.981 43.6324 100.992 43.6891 100.991 43.7463Z" fill="#333333"/>
<path d="M121.826 43.7463V47.4851C121.827 47.5423 121.816 47.599 121.794 47.652C121.773 47.705 121.741 47.7531 121.701 47.7937C121.66 47.8343 121.612 47.8666 121.56 47.8885C121.507 47.9105 121.45 47.9219 121.393 47.9219H121.148C121.033 47.9209 120.923 47.8745 120.841 47.7927C120.76 47.7109 120.715 47.6003 120.715 47.4851V43.7463C120.715 43.6311 120.76 43.5205 120.841 43.4387C120.923 43.3569 121.033 43.3105 121.148 43.3096H121.393C121.45 43.3096 121.507 43.3209 121.56 43.3429C121.612 43.3649 121.66 43.3971 121.701 43.4377C121.741 43.4783 121.773 43.5265 121.794 43.5794C121.816 43.6324 121.827 43.6891 121.826 43.7463Z" fill="#333333"/>
<path d="M133.54 46.4449C133.618 46.4469 133.693 46.4695 133.759 46.5105C133.825 46.5515 133.879 46.6094 133.915 46.6781C133.951 46.7468 133.969 46.824 133.965 46.9016C133.962 46.9792 133.937 47.0544 133.895 47.1195C133.54 47.6237 132.926 48.0001 131.907 48.0001C130.266 48.0001 129.474 46.8639 129.474 45.6105C129.466 45.2858 129.525 44.9629 129.648 44.6624C129.771 44.3618 129.956 44.0902 130.189 43.8648C130.423 43.6393 130.701 43.465 131.006 43.353C131.311 43.2409 131.636 43.1935 131.96 43.2138C132.947 43.2138 133.59 43.5973 133.93 44.0944C133.972 44.1592 133.996 44.2339 133.999 44.3108C134.002 44.3878 133.985 44.4642 133.949 44.5323C133.912 44.6003 133.859 44.6574 133.793 44.6978C133.728 44.7381 133.652 44.7603 133.575 44.7619H133.359C133.288 44.761 133.218 44.7423 133.156 44.7076C133.094 44.6729 133.042 44.6232 133.004 44.5631C132.892 44.3955 132.737 44.2616 132.555 44.1759C132.373 44.0902 132.171 44.0559 131.971 44.0766C131.111 44.0766 130.664 44.7299 130.664 45.5714C130.664 46.4129 131.072 47.1408 131.978 47.1408C132.176 47.1658 132.377 47.1331 132.557 47.0469C132.737 46.9606 132.888 46.8244 132.993 46.6544C133.03 46.5927 133.082 46.5413 133.144 46.5047C133.206 46.4681 133.276 46.4476 133.348 46.4449H133.54Z" fill="#333333"/>
</svg>
