<svg width="32" height="33" viewBox="0 0 32 33" fill="none" xmlns="http://www.w3.org/2000/svg">
<path d="M15.6375 19.8447C15.2466 20.2356 14.6127 20.2352 14.2224 19.8438L11.6829 17.2979C11.2932 16.9072 11.2936 16.2747 11.6838 15.8845L11.7797 15.7886C12.1708 15.3975 12.8051 15.3981 13.1954 15.79L14.2224 16.8212C14.6127 17.2131 15.2469 17.2137 15.638 16.8227L18.8046 13.6561C19.1951 13.2656 19.8283 13.2656 20.2188 13.6561L20.3153 13.7526C20.7059 14.1431 20.7059 14.7763 20.3153 15.1668L15.6375 19.8447Z" fill="#32949B"/>
<path d="M16 32.3785C15.7474 32.38 15.5027 32.2913 15.3097 32.1283L10.9976 28.4466L5.36481 27.9863C5.10488 27.9698 4.85989 27.8591 4.67572 27.6749C4.49155 27.4908 4.38084 27.2458 4.36433 26.9858L3.92411 21.3731L0.252321 17.061C0.0893784 16.8679 0 16.6233 0 16.3707C0 16.118 0.0893784 15.8734 0.252321 15.6803L3.92411 11.3682L4.38434 5.73548C4.40085 5.47555 4.51156 5.23056 4.69573 5.04639C4.8799 4.86222 5.12489 4.75151 5.38482 4.73499L10.9976 4.29478L15.3097 0.622987C15.5028 0.460045 15.7473 0.370667 16 0.370667C16.2527 0.370667 16.4972 0.460045 16.6903 0.622987L21.0024 4.29478L26.6352 4.755C26.8951 4.77152 27.1401 4.88223 27.3243 5.0664C27.5084 5.25057 27.6192 5.49556 27.6357 5.75549L28.0759 11.3682L31.7477 15.6803C31.9106 15.8734 32 16.118 32 16.3707C32 16.6233 31.9106 16.8679 31.7477 17.061L28.0759 21.3731L27.6157 27.0058C27.5991 27.2658 27.4884 27.5108 27.3043 27.6949C27.1201 27.8791 26.8751 27.9898 26.6152 28.0063L21.0024 28.4466L16.6903 32.1183C16.4988 32.2849 16.2538 32.3772 16 32.3785ZM6.43534 25.9353L11.5078 26.3455C11.7325 26.3626 11.9461 26.4501 12.1181 26.5956L16 29.9073L19.8819 26.5956C20.0539 26.4501 20.2675 26.3626 20.4922 26.3455L25.5647 25.9353L26.0049 20.8629C26.0219 20.6382 26.1095 20.4246 26.255 20.2526L29.5366 16.3707L26.225 12.4888C26.0795 12.3167 25.9919 12.1032 25.9749 11.8785L25.5647 6.806L20.4922 6.36579C20.2675 6.34872 20.0539 6.26119 19.8819 6.11566L16 2.83406L12.1181 6.14568C11.9461 6.29121 11.7325 6.37874 11.5078 6.3958L6.43534 6.806L5.99512 11.8785C5.97806 12.1032 5.89053 12.3167 5.745 12.4888L2.4634 16.3707L5.77501 20.2526C5.92054 20.4246 6.00807 20.6382 6.02514 20.8629L6.43534 25.9353Z" fill="#333333"/>
</svg>
