<svg width="22" height="24" viewBox="0 0 22 24" fill="none" xmlns="http://www.w3.org/2000/svg">
<path d="M11 0C4.935 0 0 4.935 0 11C0 14.195 1.375 17.19 3.74 19.26L5.1 15.625C4.07 14.32 3.5 12.705 3.5 11C3.5 6.865 6.865 3.5 11 3.5C15.135 3.5 18.5 6.865 18.5 11C18.5 12.705 17.93 14.32 16.9 15.625L18.26 19.255C19.4371 18.2262 20.38 16.957 21.0251 15.533C21.6703 14.1091 22.0027 12.5633 22 11C22 4.935 17.065 0 11 0Z" fill="white"/>
<path d="M14.5 13H7.5C7.29 13 7.105 13.13 7.03 13.325L4.1545 21H17.846L14.97 13.325C14.895 13.13 14.71 13 14.5 13ZM4 23.5C4 23.775 4.225 24 4.5 24H17.5C17.775 24 18 23.775 18 23.5V22H4V23.5Z" fill="white"/>
</svg>
