<svg width="32" height="28" viewBox="0 0 32 28" fill="none" xmlns="http://www.w3.org/2000/svg">
<path d="M28.128 0H3.872C2.84595 0.00281498 1.86272 0.411661 1.13719 1.13719C0.411661 1.86272 0.00281498 2.84595 0 3.872V19.36C0.00281498 20.3861 0.411661 21.3693 1.13719 22.0948C1.86272 22.8203 2.84595 23.2292 3.872 23.232H14.9333V25.2373H11.7333C11.4504 25.2373 11.1791 25.3497 10.9791 25.5498C10.779 25.7498 10.6667 26.0211 10.6667 26.304C10.6667 26.5869 10.779 26.8582 10.9791 27.0582C11.1791 27.2583 11.4504 27.3707 11.7333 27.3707L20.2667 27.2747C20.5496 27.2747 20.8209 27.1623 21.0209 26.9622C21.221 26.7622 21.3333 26.4909 21.3333 26.208C21.3333 25.9251 21.221 25.6538 21.0209 25.4538C20.8209 25.2537 20.5496 25.1413 20.2667 25.1413H17.0667V23.232H28.128C29.1541 23.2292 30.1373 22.8203 30.8628 22.0948C31.5883 21.3693 31.9972 20.3861 32 19.36V3.872C31.9972 2.84595 31.5883 1.86272 30.8628 1.13719C30.1373 0.411661 29.1541 0.00281498 28.128 0ZM29.8667 19.36C29.8667 19.8211 29.6835 20.2634 29.3574 20.5894C29.0314 20.9155 28.5891 21.0987 28.128 21.0987H3.872C3.41088 21.0987 2.96864 20.9155 2.64258 20.5894C2.31651 20.2634 2.13333 19.8211 2.13333 19.36V3.872C2.13333 3.41088 2.31651 2.96864 2.64258 2.64258C2.96864 2.31651 3.41088 2.13333 3.872 2.13333H28.128C28.3563 2.13333 28.5824 2.17831 28.7934 2.26568C29.0043 2.35306 29.196 2.48113 29.3574 2.64258C29.5189 2.80403 29.6469 2.9957 29.7343 3.20664C29.8217 3.41759 29.8667 3.64368 29.8667 3.872V19.36Z" fill="#32949B"/>
</svg>
