<svg width="34" height="35" viewBox="0 0 34 35" fill="none" xmlns="http://www.w3.org/2000/svg">
<path d="M26.4746 28.2937C27.9482 28.2937 28.0576 30.9185 28.3898 32.2176C28.5551 32.9362 28.9395 33.3785 29.5501 33.3785C29.9288 33.3785 30.2964 33.2403 30.5452 32.7704C31.8166 30.5976 32.97 26.1644 32.9997 23.5982C33.0206 21.7988 31.6738 20.3616 29.8743 20.3616C28.2252 20.3616 27.5249 21.6497 26.4746 21.6497C25.4243 21.6497 24.724 20.3616 23.0749 20.3616C21.2754 20.3616 19.8944 21.7989 19.9153 23.5982C19.945 26.1644 21.1665 30.5976 22.4379 32.7704C22.6867 33.2403 23.0543 33.3785 23.433 33.3785C24.0435 33.3785 24.428 32.9362 24.5932 32.2176C24.9255 30.9185 25.001 28.2937 26.4746 28.2937Z" stroke="#32949B" stroke-width="2" stroke-miterlimit="10" stroke-linecap="round" stroke-linejoin="round"/>
<path d="M17.0682 33.3785H3.04037C1.73196 33.3785 0.762536 32.1606 1.05833 30.886C1.79325 27.7188 3.92098 25.0612 6.73779 23.603C7.42226 23.2486 8.25921 23.3998 8.78647 23.9619C9.55284 24.7789 10.8985 25.8522 12.7292 25.8522C13.5481 25.8522 14.275 25.6203 14.8987 25.3108M4.93257 12.7005C5.57433 16.36 8.7502 19.1412 12.5936 19.1412C16.437 19.1412 19.6128 16.36 20.2546 12.7005M17.6783 1.37848H7.57664C6.07894 1.37848 4.86477 2.59265 4.86477 4.09034C4.86477 5.58804 4.86925 6.80221 4.86925 6.80221C4.86925 7.55109 5.4763 8.15814 6.22518 8.15814H19.0387C19.7876 8.15814 20.3947 7.55109 20.3947 6.80221C20.3947 6.80221 20.3902 5.58804 20.3902 4.09034C20.3902 2.59265 19.176 1.37848 17.6783 1.37848Z" stroke="#333333" stroke-width="2" stroke-miterlimit="10" stroke-linecap="round" stroke-linejoin="round"/>
</svg>
