<svg width="37" height="34" viewBox="0 0 37 34" fill="none" xmlns="http://www.w3.org/2000/svg">
<path d="M26.7865 5.07013C25.3271 2.64352 23.0405 1.08101 20.4702 1.08101C20.0526 1.08101 18.8706 1.69827 17.5401 2.75866C15.9316 4.04074 13.6091 4.04074 12.0006 2.75866C10.6701 1.69827 9.4881 1.08101 9.07057 1.08101C4.66347 1.08101 1.09082 5.67446 1.09082 11.3407C1.09082 14.7898 2.41949 17.8279 4.45151 19.6823C5.48538 20.6258 5.8548 22.0613 5.72401 23.4549C5.67511 23.9752 5.65064 24.4976 5.65068 25.0203C5.65068 25.7368 5.69437 26.4394 5.77835 27.123C6.15084 30.1563 8.54323 32.4924 11.4938 32.9271C12.0402 33.0077 12.4905 32.5523 12.4905 32V23.8803C12.4905 22.6211 13.5111 21.6004 14.7704 21.6004C16.0296 21.6004 17.0503 22.6211 17.0503 23.8803V32C17.0503 32.5523 17.5006 33.0077 18.0469 32.9271C20.9975 32.4923 23.3899 30.1562 23.7624 27.1229C23.8477 26.4253 23.8904 25.7231 23.8901 25.0203C23.8901 24.4891 23.8649 23.9665 23.8166 23.4539C23.6857 22.0608 24.0549 20.6258 25.0886 19.6829C27.1209 17.8286 28.45 14.7902 28.45 11.3407C28.45 10.6937 28.4034 10.0607 28.3143 9.44683" stroke="#333333" stroke-width="2" stroke-miterlimit="10"/>
<path d="M30.537 11.8303C30.4163 12.1081 30.0224 12.1081 29.9017 11.8303V11.8303C28.981 9.7104 27.2897 8.01915 25.1698 7.09848V7.09848C24.892 6.97781 24.892 6.58382 25.1698 6.46314V6.46314C27.2897 5.5425 28.981 3.85124 29.9017 1.73131V1.73131C30.0224 1.45352 30.4163 1.45353 30.537 1.73131V1.73131C31.4576 3.85123 33.1489 5.5425 35.2688 6.46314V6.46314C35.5466 6.58382 35.5466 6.97781 35.2688 7.09848V7.09848C33.1489 8.01916 31.4577 9.71041 30.537 11.8303V11.8303Z" stroke="#32949B" stroke-width="2" stroke-miterlimit="10"/>
</svg>
