<svg width="27" height="32" viewBox="0 0 27 32" fill="none" xmlns="http://www.w3.org/2000/svg">
<path d="M19.1112 12.0947C18.6947 11.6782 18.0192 11.6782 17.6027 12.0947L11.6716 18.0257L10.0797 16.4339C9.66316 16.0174 8.98773 16.0174 8.57116 16.4339C8.15466 16.8504 8.15466 17.5258 8.57116 17.9424L10.9174 20.2885C11.334 20.7051 12.0094 20.7051 12.4259 20.2885L19.1112 13.6031C19.5277 13.1866 19.5277 12.5112 19.1112 12.0947Z" fill="#32949B"/>
<path d="M26.479 7.34398L14.3863 0.149911C14.2214 0.0517904 14.0329 0 13.841 0C13.649 0 13.4606 0.0517904 13.2956 0.149911L1.20295 7.34398C1.04407 7.43852 0.912491 7.57272 0.821102 7.73343C0.729713 7.89415 0.681655 8.07585 0.681641 8.26073V12.3674C0.681641 21.017 5.67914 28.9172 13.4558 31.9281C13.7036 32.024 13.9783 32.024 14.2261 31.9281C21.9839 28.9247 27.0002 21.0417 27.0002 12.3674V8.26073C27.0002 8.07585 26.9522 7.89413 26.8608 7.73342C26.7694 7.5727 26.6379 7.4385 26.479 7.34398ZM24.8669 12.3674C24.8669 20.1681 20.4583 26.8352 14.2231 29.6192C13.9799 29.7278 13.702 29.7278 13.4588 29.6192C7.2201 26.8336 2.81508 20.1635 2.81508 12.3674V9.43602C2.81508 9.08342 3.00077 8.75688 3.3038 8.57661L13.3297 2.61202C13.6448 2.42457 14.0372 2.42457 14.3523 2.61202L24.3782 8.5766C24.6813 8.75688 24.867 9.08343 24.867 9.43603L24.8669 12.3674Z" fill="#333333"/>
</svg>
