<svg width="32" height="32" viewBox="0 0 32 32" fill="none" xmlns="http://www.w3.org/2000/svg">
<path d="M16 0C7.19006 0 0 7.19056 0 16C0 24.8099 7.19056 32 16 32C24.81 32 32 24.8094 32 16C32 7.19 24.8094 0 16 0ZM16 30.125C8.21144 30.125 1.875 23.7886 1.875 16C1.875 8.21144 8.21144 1.875 16 1.875C23.7886 1.875 30.125 8.21144 30.125 16C30.125 23.7886 23.7886 30.125 16 30.125Z" fill="#333333"/>
<path d="M28.3155 15.934C28.3155 14.2688 27.5607 12.7487 26.2283 11.6949C26.5973 8.2461 23.6798 5.33567 20.2363 5.70567C19.2078 4.42935 17.6579 3.68054 15.9996 3.68054C14.3413 3.68054 12.7914 4.42935 11.7628 5.7056C8.31428 5.33504 5.40097 8.25198 5.77122 11.6972C4.49497 12.7258 3.74609 14.2757 3.74609 15.934C3.74609 17.5923 4.49497 19.1422 5.77122 20.1707C5.40184 23.6079 8.30416 26.5329 11.7623 26.1617C12.7908 27.4384 14.341 28.1875 15.9996 28.1875C17.6582 28.1875 19.2083 27.4384 20.2368 26.1617C23.6822 26.5317 26.5972 23.6211 26.2283 20.1732C27.5608 19.1194 28.3155 17.5993 28.3155 15.934ZM20.584 7.55573C22.7565 7.40348 24.6443 9.29004 24.3565 11.5555L18.0526 14.0805C17.9941 14.018 17.9328 13.958 17.8689 13.901L20.584 7.55573ZM15.9996 5.55554C17.1238 5.55554 18.1345 6.0531 18.8128 6.92873L16.1333 13.1909C16.0888 13.1887 16.0442 13.1876 15.9996 13.1875C15.9613 13.1875 15.9234 13.1889 15.8855 13.1904L13.3166 6.76829C13.9907 5.99223 14.9456 5.55554 15.9996 5.55554ZM16.9371 16C16.9371 16.5169 16.5165 16.9375 15.9996 16.9375C15.4827 16.9375 15.0621 16.5169 15.0621 16C15.0621 15.483 15.4827 15.0625 15.9996 15.0625C16.5165 15.0625 16.9371 15.483 16.9371 16ZM11.6207 7.57704L14.1452 13.8881C14.0807 13.9447 14.019 14.0043 13.96 14.0665L7.62141 11.35C7.46853 9.17729 9.35578 7.28954 11.6207 7.57704ZM6.83391 18.617C6.05784 17.9429 5.62109 16.988 5.62109 15.934C5.62109 14.8099 6.11859 13.7993 6.99397 13.1211L13.1966 15.7794C13.1906 15.8527 13.1874 15.9263 13.1871 16C13.1871 16.0251 13.1883 16.0499 13.189 16.0749L6.83391 18.617ZM11.4157 24.3122C9.24697 24.4645 7.35459 22.5826 7.64259 20.3129L13.8623 17.825C13.9344 17.9095 14.0115 17.9897 14.093 18.0652L11.4157 24.3122ZM15.9996 26.3125C14.8755 26.3125 13.8649 25.815 13.1867 24.9397L15.8155 18.8058C15.8764 18.8097 15.9377 18.8125 15.9996 18.8125C16.0553 18.8125 16.1106 18.8104 16.1655 18.8072L18.6825 25.0997C18.0085 25.8758 17.0536 26.3125 15.9996 26.3125ZM20.3785 24.291L17.8932 18.0777C17.9752 18.0025 18.0527 17.9227 18.1253 17.8384L24.3778 20.518C24.5307 22.6904 22.6438 24.5784 20.3785 24.291ZM25.0063 18.7474L18.8098 16.0917C18.8108 16.0612 18.8121 16.0307 18.8121 16C18.8118 15.933 18.8092 15.8661 18.8042 15.7993L25.1683 13.2501C25.9823 13.9419 26.4405 14.898 26.4405 15.934C26.4406 17.0366 25.9208 18.0481 25.0063 18.7474Z" fill="#32949B"/>
</svg>
