<svg width="48" height="49" viewBox="0 0 48 49" fill="none" xmlns="http://www.w3.org/2000/svg">
<rect y="0.240234" width="48" height="48" rx="24" fill="#32949B"/>
<path d="M24 12.2402C17.935 12.2402 13 17.1752 13 23.2402C13 26.4352 14.375 29.4302 16.74 31.5002L18.1 27.8652C17.07 26.5602 16.5 24.9452 16.5 23.2402C16.5 19.1052 19.865 15.7402 24 15.7402C28.135 15.7402 31.5 19.1052 31.5 23.2402C31.5 24.9452 30.93 26.5602 29.9 27.8652L31.26 31.4952C32.4371 30.4664 33.38 29.1973 34.0251 27.7733C34.6703 26.3493 35.0027 24.8036 35 23.2402C35 17.1752 30.065 12.2402 24 12.2402Z" fill="white"/>
<path d="M27.5 25.2402H20.5C20.29 25.2402 20.105 25.3702 20.03 25.5652L17.1545 33.2402H30.846L27.97 25.5652C27.895 25.3702 27.71 25.2402 27.5 25.2402ZM17 35.7402C17 36.0152 17.225 36.2402 17.5 36.2402H30.5C30.775 36.2402 31 36.0152 31 35.7402V34.2402H17V35.7402Z" fill="white"/>
</svg>
