<svg width="14" height="14" viewBox="0 0 14 14" fill="none" xmlns="http://www.w3.org/2000/svg">
<path d="M7.01233 1.7408C10.3952 1.7408 13.1235 3.90476 13.1235 6.56177C13.1235 9.21878 10.3952 11.3827 7.01233 11.3827C6.23851 11.3827 5.47181 11.2663 4.73223 11.0335C4.47157 10.9495 4.18658 10.9935 3.96334 11.1523C3.35798 11.5974 2.35982 12.119 1.15019 12.2387C1.45424 11.8245 1.9651 11.1293 2.26614 10.3317L2.26966 10.3224C2.38698 10.0137 2.31869 9.68963 2.09356 9.42338C1.3014 8.56412 0.878191 7.5917 0.878191 6.56177C0.878191 3.90476 3.63217 1.7408 7.01233 1.7408ZM7.01233 0.864258C3.14186 0.864258 0.000751755 3.41444 0.000751755 6.56177C0.000751755 7.86645 0.546398 9.06128 1.45006 10.0186C1.04274 11.1006 0.193591 12.0149 0.179895 12.0251C-0.00154916 12.2168 -0.049485 12.4976 0.0532072 12.7373C0.159345 12.977 0.393902 13.1358 0.657412 13.1358C2.34174 13.1358 3.64587 12.4305 4.46762 11.8689C5.26199 12.1168 6.11661 12.2593 7.01233 12.2593C10.8855 12.2593 14 9.70828 14 6.56177C14 3.41526 10.8855 0.864258 7.01233 0.864258Z" fill="white"/>
</svg>
