<svg width="14" height="15" viewBox="0 0 14 15" fill="none" xmlns="http://www.w3.org/2000/svg">
<path d="M7.4375 7.87891C7.4375 8.02383 7.36367 8.16055 7.24336 8.24258L4.61836 9.99258C4.41602 10.1266 4.14531 10.0719 4.01133 9.87227C3.87734 9.66992 3.93203 9.39922 4.13164 9.26523L6.5625 7.64375V3.94141C6.5625 3.70078 6.75937 3.50391 7 3.50391C7.24063 3.50391 7.4375 3.70078 7.4375 3.94141V7.87891ZM14 7.87891C14 11.7453 10.8664 14.8789 7 14.8789C3.13359 14.8789 0 11.7453 0 7.87891C0 4.0125 3.13359 0.878906 7 0.878906C10.8664 0.878906 14 4.0125 14 7.87891ZM7 1.75391C3.61758 1.75391 0.875 4.49648 0.875 7.87891C0.875 11.2613 3.61758 14.0039 7 14.0039C10.3824 14.0039 13.125 11.2613 13.125 7.87891C13.125 4.49648 10.3824 1.75391 7 1.75391Z" fill="white"/>
</svg>
