<svg width="14" height="15" viewBox="0 0 14 15" fill="none" xmlns="http://www.w3.org/2000/svg">
<path d="M7 0.378906C3.13359 0.378906 0 3.5125 0 7.37891C0 11.2453 3.13359 14.3789 7 14.3789C10.8664 14.3789 14 11.2453 14 7.37891C14 3.5125 10.8664 0.378906 7 0.378906ZM7 13.5039C3.62305 13.5039 0.875 10.7559 0.875 7.37891C0.875 4.00195 3.62305 1.25391 7 1.25391C10.377 1.25391 13.125 4.00195 13.125 7.37891C13.125 10.7559 10.377 13.5039 7 13.5039ZM8.85664 5.52227C9.02754 5.69316 9.30453 5.69316 9.47516 5.52227C9.64578 5.35137 9.64605 5.07437 9.47516 4.90375C8.15418 3.58086 5.84664 3.58086 4.52594 4.90375C3.86367 5.56602 3.5 6.44375 3.5 7.37891C3.5 8.31406 3.86395 9.19289 4.52539 9.85352C5.18711 10.5152 6.06484 10.8789 7 10.8789C7.93516 10.8789 8.81398 10.515 9.47461 9.85352C9.64551 9.68262 9.64551 9.40563 9.47461 9.235C9.30371 9.06437 9.02672 9.0641 8.85609 9.235C7.86488 10.2262 6.13539 10.2262 5.14281 9.235C4.62383 8.74063 4.375 8.08164 4.375 7.37891C4.375 6.67617 4.62383 6.01855 5.14391 5.52281C6.13594 4.53242 7.86406 4.53242 8.85664 5.52227Z" fill="#32949B"/>
</svg>
