<svg width="20" height="21" viewBox="0 0 20 21" fill="none" xmlns="http://www.w3.org/2000/svg">
<path d="M2.42176 7.78789L0.0821222 14.1195C-0.133125 14.702 0.165994 15.3498 0.747441 15.5646L6.02374 17.5143L8.75332 10.1275L2.42176 7.78789ZM18.7551 9.02602L15.4163 7.79225C15.7163 7.7172 15.9821 7.63073 16.1794 7.53813C17.3473 6.997 17.862 5.60406 17.3267 4.43356C16.8074 3.29419 15.3651 2.76365 14.2316 3.28987C13.604 3.57967 11.6998 5.0001 11.4063 6.31048L11.3303 6.2824C11.9584 5.09564 11.4354 2.77835 11.1481 2.15046C10.6281 1.01321 9.18657 0.480548 8.05303 1.00677C6.88625 1.54829 6.37153 2.94124 6.90477 4.11095C6.99553 4.31 7.14126 4.54855 7.32036 4.80063L3.98152 3.56686C3.40007 3.352 2.75118 3.65073 2.53632 4.23218L1.95141 5.81507C1.84379 6.10632 1.99282 6.43004 2.28407 6.53767L9.14326 9.07228L9.92314 6.96176L12.0337 7.74164L11.2538 9.85216L18.113 12.3868C18.4042 12.4944 18.7279 12.3454 18.8356 12.0541L19.4205 10.4712C19.6353 9.88977 19.3377 9.24126 18.7551 9.02602ZM10.2637 5.84867C10.2637 5.84867 10.2065 5.86711 10.0556 5.81135C9.32641 5.5419 8.2145 4.2699 7.92892 3.64385C7.65132 3.03515 7.9196 2.30913 8.5263 2.02719C8.82007 1.89108 9.14761 1.87778 9.44941 1.98931C9.75016 2.10044 9.99035 2.32352 10.125 2.61795C10.5719 3.59624 10.6035 5.68521 10.2637 5.84867ZM12.68 6.78113C12.5302 6.72576 12.4983 6.67562 12.4987 6.67456C12.3468 6.32939 13.7292 4.76294 14.7048 4.31029C15.2888 4.03795 16.0336 4.31075 16.3036 4.90105C16.5822 5.51015 16.3139 6.23616 15.7062 6.51771C15.0821 6.80763 13.4103 7.05097 12.68 6.78113ZM10.8638 10.9074L8.13426 18.2942L13.4106 20.2439C13.9931 20.4592 14.6405 20.1611 14.8558 19.5786L17.1954 13.2471L10.8638 10.9074Z" fill="white"/>
</svg>
