<svg width="14" height="15" viewBox="0 0 14 15" fill="none" xmlns="http://www.w3.org/2000/svg">
<path d="M13.2527 9.53984L10.4691 8.34602C9.96328 8.1358 9.36992 8.28107 9.02676 8.70367L8.12059 9.81027C6.6793 9.02578 5.47891 7.82539 4.69414 6.38438L5.80211 5.47684C6.23059 5.12355 6.37168 4.54277 6.1532 4.03199L4.96211 1.2484C4.72422 0.699036 4.12539 0.397817 3.5457 0.531556L0.963633 1.13055C0.397617 1.25961 0.00195312 1.75508 0.00195312 2.33531C0.00195312 9.04219 5.45977 14.5 12.1672 14.5C12.7477 14.5 13.2448 14.1052 13.375 13.5394L13.9711 10.9562C14.1031 10.3738 13.8023 9.77773 13.2527 9.53984ZM12.5227 13.3434C12.4851 13.5066 12.3355 13.6253 12.1677 13.6253C5.94156 13.6253 0.8775 8.56121 0.8775 2.33504C0.8775 2.16584 0.993273 2.02113 1.16023 1.98285L3.74176 1.38375C3.7691 1.37734 3.79645 1.37435 3.82335 1.37435C3.96647 1.37435 4.0998 1.45895 4.15831 1.59395L5.34995 4.37481C5.41328 4.525 5.37227 4.69727 5.24648 4.80117L3.86563 5.9332C3.70977 6.06172 3.66055 6.28047 3.75078 6.46367C4.66352 8.31785 6.18738 9.84062 8.04102 10.7539C8.22261 10.8445 8.44379 10.7958 8.57258 10.6385L9.70434 9.25768C9.80559 9.13291 9.98215 9.0919 10.1282 9.15257L12.9063 10.3437C13.0678 10.4137 13.1566 10.5889 13.1174 10.7598L12.5227 13.3434Z" fill="white"/>
</svg>
