<svg width="12" height="14" viewBox="0 0 12 14" fill="none" xmlns="http://www.w3.org/2000/svg">
<path d="M8.19312 5.26362C8.19312 6.47535 7.21168 7.45679 5.99995 7.45679C4.78822 7.45679 3.80677 6.47535 3.80677 5.26362C3.80677 4.05189 4.78822 3.07044 5.99995 3.07044C7.21168 3.07044 8.19312 4.05189 8.19312 5.26362ZM5.99995 6.57952C6.72644 6.57952 7.31586 5.99011 7.31586 5.26362C7.31586 4.53713 6.72644 3.94771 5.99995 3.94771C5.27346 3.94771 4.68404 4.53713 4.68404 5.26362C4.68404 5.99011 5.27346 6.57952 5.99995 6.57952ZM11.2636 5.26362C11.2636 7.65966 8.05605 11.9254 6.64968 13.6854C6.31248 14.1049 5.68742 14.1049 5.35022 13.6854C3.91917 11.9254 0.736328 7.65966 0.736328 5.26362C0.736328 2.35656 3.0929 0 5.99995 0C8.90591 0 11.2636 2.35656 11.2636 5.26362ZM5.99995 0.877274C3.57649 0.877274 1.6136 2.84016 1.6136 5.26362C1.6136 5.69129 1.76246 6.27796 2.06759 7.00171C2.36668 7.71175 2.78695 8.4821 3.26232 9.25249C4.19606 10.7685 5.30362 12.2187 5.99995 13.0933C6.69628 12.2187 7.80384 10.7685 8.73868 9.25249C9.21295 8.4821 9.6324 7.71175 9.93122 7.00171C10.2383 6.27796 10.3863 5.69129 10.3863 5.26362C10.3863 2.84016 8.42341 0.877274 5.99995 0.877274Z" fill="white"/>
</svg>
