<svg width="12" height="13" viewBox="0 0 12 13" fill="none" xmlns="http://www.w3.org/2000/svg">
<rect y="0.619141" width="12" height="12" rx="6" fill="#32949B"/>
<path d="M9 6.619C9 6.74592 8.89615 6.84977 8.76923 6.84977H6.23077V9.38823C6.23077 9.51578 6.12756 9.61914 6 9.61914C5.87244 9.61914 5.76923 9.51515 5.76923 9.38823V6.84977H3.23077C3.10321 6.84977 3 6.74664 3 6.61914C3 6.49207 3.10327 6.38823 3.23077 6.38823H5.76923V3.84977C5.76923 3.72221 5.87244 3.61914 6 3.61914C6.12756 3.61914 6.23077 3.72227 6.23077 3.84977V6.38823H8.76923C8.89615 6.38823 9 6.49207 9 6.619Z" fill="white"/>
</svg>
