<svg width="32" height="30" viewBox="0 0 32 30" fill="none" xmlns="http://www.w3.org/2000/svg">
<path d="M31.9334 21.0753C31.7659 20.3239 31.3034 19.6859 30.631 19.2787L22.9106 14.6024C22.8018 14.5369 22.689 14.4784 22.5728 14.4274V4.33182C22.5728 3.04719 21.9751 1.87955 20.9331 1.12832C19.891 0.377026 18.5943 0.179145 17.3755 0.584979L15.8065 1.10761C14.3595 0.0335656 12.3001 0.152056 10.9887 1.46359L9.75065 2.70161C9.38417 3.06803 9.38417 3.66223 9.75065 4.02871L13.6543 7.9324C13.7415 8.01957 13.8449 8.08872 13.9588 8.13589C14.0726 8.18307 14.1946 8.20735 14.3179 8.20735C14.4411 8.20735 14.5632 8.18307 14.677 8.13589C14.7909 8.08872 14.8943 8.01957 14.9814 7.9324L16.2195 6.69438H16.2194C16.918 5.99582 17.3028 5.06698 17.3028 4.07895C17.3028 3.59079 17.2085 3.1172 17.0292 2.67852L17.9687 2.36559C18.6082 2.15263 19.2886 2.25649 19.8356 2.65068C20.3824 3.04494 20.696 3.65767 20.696 4.33176V14.1736H12.3561C11.9799 14.1736 11.6329 13.9863 11.4506 13.6848L5.42555 3.71647C4.62339 2.38943 2.84935 1.9301 1.47088 2.69235L1.46588 2.69516C0.779519 3.07585 0.292418 3.69408 0.0940996 4.43649C-0.100215 5.16389 0.00857863 5.92156 0.400399 6.56994L7.56289 18.4201C8.08296 19.2805 9.0454 19.8151 10.0746 19.8151H13.1809V24.8238L11.686 27.5572H10.3657C9.84749 27.5572 9.42733 27.9773 9.42733 28.4956C9.42733 29.0138 9.84749 29.434 10.3657 29.434H21.6344C22.1526 29.434 22.5728 29.0138 22.5728 28.4956C22.5728 27.9773 22.1526 27.5572 21.6344 27.5572H20.314L18.8191 24.8238V19.8151H20.2196C20.4231 19.8151 20.6204 19.8695 20.7904 19.9724L27.5449 24.0636C28.0204 24.3516 28.552 24.4889 29.0785 24.4889C30.0376 24.4889 30.9797 24.0331 31.5335 23.2018C31.9557 22.5679 32.0977 21.8128 31.9334 21.0753ZM14.8923 5.36727L14.3179 5.94177L11.7413 3.36513L12.3157 2.79063C12.6599 2.44655 13.1173 2.25705 13.604 2.25705C14.0906 2.25705 14.5481 2.44655 14.8923 2.79069C15.2364 3.13484 15.4259 3.59229 15.4259 4.07901C15.4259 4.56568 15.2364 5.02312 14.8923 5.36727ZM13.8253 27.5572L14.6758 26.0021H17.3243L18.1748 27.5572H13.8253ZM16.9423 24.1252H15.0578V19.815H16.9423V24.1252ZM29.9715 22.1611C29.6684 22.616 29.0024 22.7521 28.5172 22.4581L21.7626 18.367C21.2994 18.0864 20.7658 17.9382 20.2196 17.9382H10.0747C9.69841 17.9382 9.35145 17.7508 9.16914 17.4492L2.00665 5.59912C1.88122 5.39161 1.84593 5.15068 1.90737 4.92077C1.97306 4.67478 2.14003 4.46702 2.37752 4.3357L2.38177 4.33332C2.88007 4.05962 3.53777 4.2214 3.81936 4.68723L9.84443 14.6556C10.3645 15.516 11.3269 16.0504 12.3561 16.0504H21.3675C21.571 16.0504 21.7684 16.1048 21.9383 16.2078L29.6587 20.884C29.8892 21.0236 30.0464 21.2366 30.1014 21.4836C30.1534 21.7167 30.1073 21.9573 29.9715 22.1611Z" fill="#32949B"/>
</svg>
