<svg width="32" height="28" viewBox="0 0 32 28" fill="none" xmlns="http://www.w3.org/2000/svg">
<path d="M28.128 0.378418H3.872C2.84595 0.381233 1.86272 0.790078 1.13719 1.51561C0.411661 2.24114 0.00281498 3.22437 0 4.25042V19.7384C0.00281498 20.7645 0.411661 21.7477 1.13719 22.4732C1.86272 23.1988 2.84595 23.6076 3.872 23.6104H14.9333V25.6158H11.7333C11.4504 25.6158 11.1791 25.7281 10.9791 25.9282C10.779 26.1282 10.6667 26.3995 10.6667 26.6824C10.6667 26.9653 10.779 27.2366 10.9791 27.4367C11.1791 27.6367 11.4504 27.7491 11.7333 27.7491L20.2667 27.6531C20.5496 27.6531 20.8209 27.5407 21.0209 27.3407C21.221 27.1406 21.3333 26.8693 21.3333 26.5864C21.3333 26.3035 21.221 26.0322 21.0209 25.8322C20.8209 25.6321 20.5496 25.5198 20.2667 25.5198H17.0667V23.6104H28.128C29.1541 23.6076 30.1373 23.1988 30.8628 22.4732C31.5883 21.7477 31.9972 20.7645 32 19.7384V4.25042C31.9972 3.22437 31.5883 2.24114 30.8628 1.51561C30.1373 0.790078 29.1541 0.381233 28.128 0.378418ZM29.8667 19.7384C29.8667 20.1995 29.6835 20.6418 29.3574 20.9678C29.0314 21.2939 28.5891 21.4771 28.128 21.4771H3.872C3.41088 21.4771 2.96864 21.2939 2.64258 20.9678C2.31651 20.6418 2.13333 20.1995 2.13333 19.7384V4.25042C2.13333 3.7893 2.31651 3.34706 2.64258 3.021C2.96864 2.69493 3.41088 2.51175 3.872 2.51175H28.128C28.3563 2.51175 28.5824 2.55672 28.7934 2.6441C29.0043 2.73148 29.196 2.85954 29.3574 3.021C29.5189 3.18245 29.6469 3.37411 29.7343 3.58506C29.8217 3.796 29.8667 4.02209 29.8667 4.25042V19.7384Z" fill="#32949B"/>
</svg>
