<svg width="34" height="26" viewBox="0 0 34 26" fill="none" xmlns="http://www.w3.org/2000/svg">
<path d="M27.9861 12.0728L27.9714 15.3488C27.9721 16.7408 26.8436 17.8693 25.4517 17.8693C24.0597 17.8693 22.9312 16.7409 22.9509 15.3488L22.9492 12.5393" stroke="#333333" stroke-width="1.5" stroke-miterlimit="10" stroke-linecap="round" stroke-linejoin="round"/>
<path d="M17.012 13.0117V16.3292C17.0013 16.9733 17.3365 19.2319 19.9704 19.2319C21.6102 19.2319 22.9499 17.969 22.9499 16.3292L22.9502 15.3487" stroke="#333333" stroke-width="1.5" stroke-miterlimit="10" stroke-linecap="round" stroke-linejoin="round"/>
<path d="M17.0122 16.2628C17.0122 17.9026 15.6721 19.2319 14.0324 19.2319C12.3926 19.2319 11.0741 17.9026 11.0741 16.2628L11.0723 15.3486" stroke="#333333" stroke-width="1.5" stroke-miterlimit="10" stroke-linecap="round" stroke-linejoin="round"/>
<path d="M11.0829 12.3455L11.0722 15.3486C11.0722 16.7406 9.9438 17.8691 8.55181 17.8691C7.15982 17.8691 6.03138 16.7407 6.04207 15.3486V11.8369" stroke="#333333" stroke-width="1.5" stroke-miterlimit="10" stroke-linecap="round" stroke-linejoin="round"/>
<path d="M6.04219 14.2062C6.04219 15.5783 4.91527 16.6906 3.5432 16.6906C2.15121 16.6906 1.02277 15.5622 1.02277 14.1701L1 11.4326M32.9913 11.4326V14.141C32.9913 15.533 31.8839 16.6615 30.4919 16.6615C29.0999 16.6615 27.9714 15.533 27.9714 14.141L27.981 14.253" stroke="#333333" stroke-width="1.5" stroke-miterlimit="10" stroke-linecap="round" stroke-linejoin="round"/>
<path d="M9.57586 13.578H7.54514C6.71389 13.578 6.04004 12.9042 6.04004 12.0729V9.74065C6.04004 8.34866 7.16848 7.22021 8.56047 7.22021C9.95246 7.22021 11.0809 8.34866 11.0809 9.74065V12.0729C11.081 12.9042 10.4071 13.578 9.57586 13.578Z" stroke="#333333" stroke-width="1.5" stroke-miterlimit="10" stroke-linecap="round" stroke-linejoin="round"/>
<path d="M32.9907 14.1411V22.0685C23.0935 25.5645 11.0367 25.611 1.01172 22.3307L1.02207 14.1703" stroke="#32949B" stroke-width="1.5" stroke-miterlimit="10" stroke-linecap="round" stroke-linejoin="round"/>
<path d="M11.0801 10.3568C11.0724 8.71702 12.4017 7.3877 14.0415 7.3877C15.6813 7.3877 17.0106 8.71702 17.0106 10.3568M17.0106 10.3568V13.0417M17.0106 10.3568C17.0106 8.71702 18.3399 7.3877 19.9797 7.3877C21.6195 7.3877 22.9488 8.71702 22.9488 10.3568V12.5393C22.9487 13.3705 22.2749 14.0444 21.4436 14.0444H18.5157C17.6844 14.0444 17.0106 14.05 17.0106 13.0417M17.0106 13.0417C17.0106 14.05 16.3367 14.0444 15.5055 14.0444H12.5775C11.7463 14.0444 11.0724 13.3705 11.0801 12.5393L11.0742 11.5982" stroke="#333333" stroke-width="1.5" stroke-miterlimit="10" stroke-linecap="round" stroke-linejoin="round"/>
<path d="M26.4762 13.578H24.4454C23.6142 13.578 22.9403 12.9042 22.9493 12.0729V9.74065C22.9403 8.34866 24.0688 7.22021 25.4608 7.22021C26.8528 7.22021 27.9813 8.34866 27.9862 9.74065V12.0729C27.9813 12.9042 27.3074 13.578 26.4762 13.578Z" stroke="#333333" stroke-width="1.5" stroke-miterlimit="10" stroke-linecap="round" stroke-linejoin="round"/>
<path d="M31.4845 12.5394H29.4538C28.6425 12.5394 27.9848 12.28 27.9848 11.4687V9.50392C27.9848 8.13185 29.0971 7.01953 30.4691 7.01953C31.8611 7.01953 32.9896 8.14798 32.9896 9.53996V11.4325C32.9896 12.2639 32.3158 12.5394 31.4845 12.5394ZM4.53583 12.5394H2.5051C1.67385 12.5394 1 12.2639 1 11.4326V9.54003C1 8.14804 2.12844 7.0196 3.52043 7.0196C4.91242 7.0196 6.04086 8.14804 6.04086 9.54003V11.4326C6.04093 12.2639 5.36707 12.5394 4.53583 12.5394Z" stroke="#333333" stroke-width="1.5" stroke-miterlimit="10" stroke-linecap="round" stroke-linejoin="round"/>
<path d="M1 9.53981V2.95368L5.73497 1.84296C9.21547 1.02649 12.8622 1.29074 16.1886 2.60046L17.0858 2.95368L17.7772 2.67481C21.1423 1.31766 24.8449 1.03516 28.377 1.86606L33 2.95368L32.9896 9.53981" stroke="#32949B" stroke-width="1.5" stroke-miterlimit="10" stroke-linecap="round" stroke-linejoin="round"/>
</svg>
