<svg width="31" height="33" viewBox="0 0 31 33" fill="none" xmlns="http://www.w3.org/2000/svg">
<path d="M30.108 9.16594C29.9414 2.38167 22.4739 -1.83905 16.5689 1.60995C15.6353 2.15521 14.4755 2.15521 13.5419 1.60995C7.61399 -1.85247 0.16897 2.40431 0.00285883 9.16594C-0.0731636 12.2558 1.38616 14.2355 2.09661 15.0384C2.32436 15.2957 2.68047 15.4411 3.02414 15.4411H5.58677C6.13906 15.4411 6.58677 15.8888 6.58677 16.4411V19.1459C6.58677 19.6982 7.03449 20.1459 7.58677 20.1459H10.3506C10.8703 20.1459 11.2916 20.5672 11.2916 21.0869C11.2916 21.6066 10.8703 22.0278 10.3506 22.0278C9.83094 22.0278 9.40966 22.4491 9.40966 22.9688C9.40966 23.4885 9.83094 23.9098 10.3506 23.9098C10.8703 23.9098 11.2916 24.331 11.2916 24.8507V25.7917C11.2916 26.3114 10.8703 26.7326 10.3506 26.7326C9.83094 26.7326 9.40966 27.1539 9.40966 27.6736C9.40966 28.1933 9.83094 28.6146 10.3506 28.6146C10.8703 28.6146 11.2916 29.0359 11.2916 29.5555V31.3784C11.2916 31.9307 11.7393 32.3784 12.2916 32.3784H17.8193C18.3716 32.3784 18.8193 31.9307 18.8193 31.3784V29.5555C18.8193 29.0359 19.2406 28.6146 19.7602 28.6146C20.2799 28.6146 20.7012 28.1933 20.7012 27.6736C20.7012 27.1539 20.2799 26.7326 19.7602 26.7326C19.2406 26.7326 18.8193 26.3114 18.8193 25.7917V24.8507C18.8193 24.331 19.2406 23.9098 19.7602 23.9098C20.2799 23.9098 20.7012 23.4885 20.7012 22.9688C20.7012 22.4491 20.2799 22.0278 19.7602 22.0278C19.2406 22.0278 18.8193 21.6066 18.8193 21.0869C18.8193 20.5672 19.2406 20.1459 19.7602 20.1459H22.5241C23.0764 20.1459 23.5241 19.6982 23.5241 19.1459V16.4411C23.5241 15.8888 23.9718 15.4411 24.5241 15.4411H27.0867C27.4304 15.4411 27.7864 15.2956 28.0162 15.04C28.7281 14.2481 30.1852 12.3027 30.108 9.16594ZM16.9374 29.5555C16.9374 30.0752 16.5161 30.4965 15.9964 30.4965H14.1145C13.5948 30.4965 13.1735 30.0752 13.1735 29.5555C13.1735 29.0359 13.5948 28.6146 14.1145 28.6146H15.9964C16.5161 28.6146 16.9374 29.0359 16.9374 29.5555ZM16.9374 25.7326C16.9374 26.2849 16.4896 26.7326 15.9374 26.7326H14.1735C13.6212 26.7326 13.1735 26.2849 13.1735 25.7326V24.9098C13.1735 24.3575 13.6212 23.9098 14.1735 23.9098H15.9374C16.4896 23.9098 16.9374 24.3575 16.9374 24.9098V25.7326ZM16.9374 21.0869C16.9374 21.6066 16.5161 22.0278 15.9964 22.0278H14.1145C13.5948 22.0278 13.1735 21.6066 13.1735 21.0869C13.1735 20.5672 13.5948 20.1459 14.1145 20.1459H15.9964C16.5161 20.1459 16.9374 20.5672 16.9374 21.0869ZM21.6422 17.264C21.6422 17.8163 21.1945 18.264 20.6422 18.264H9.4687C8.91641 18.264 8.4687 17.8163 8.4687 17.264V16.4411C8.4687 15.8888 8.91641 15.4411 9.4687 15.4411H20.6422C21.1945 15.4411 21.6422 15.8888 21.6422 16.4411V17.264ZM27.0925 13.1804C26.9223 13.4274 26.634 13.5592 26.334 13.5592H3.77694C3.47697 13.5592 3.18867 13.4274 3.01844 13.1804C2.25558 12.0735 1.84836 10.6704 1.88422 9.21218C2.01602 3.84712 7.92332 0.507648 12.5928 3.235C14.1118 4.12226 15.9992 4.12226 17.5182 3.235C22.1963 0.502566 28.0952 3.85565 28.2268 9.21218C28.2626 10.6704 27.8554 12.0735 27.0925 13.1804Z" fill="#32949B"/>
</svg>
