<svg width="32" height="33" viewBox="0 0 32 33" fill="none" xmlns="http://www.w3.org/2000/svg">
<path d="M4.68619 0.378418H0.93725C0.419688 0.378418 6.25001e-05 0.798043 6.25001e-05 1.31567V5.12711C6.25001e-05 5.64473 0.419625 6.06436 0.937313 6.06436C1.45494 6.06436 1.87456 5.64473 1.87456 5.12711V2.25292H4.68625C5.20388 2.25292 5.6235 1.83329 5.6235 1.31567C5.62344 0.798043 5.20381 0.378418 4.68619 0.378418ZM31.0538 0.378418H27.3048C26.7872 0.378418 26.3676 0.798043 26.3676 1.31567C26.3676 1.83329 26.7871 2.25292 27.3048 2.25292H30.1165V5.12711C30.1165 5.64473 30.5361 6.06436 31.0538 6.06436C31.5714 6.06436 31.991 5.64473 31.991 5.12711V1.31567C31.991 0.798043 31.5714 0.378418 31.0538 0.378418ZM4.68619 30.4949H1.8745V27.6207C1.8745 27.1031 1.45487 26.6835 0.93725 26.6835C0.419625 26.6835 0 27.1031 0 27.6207V31.4322C0 31.9498 0.419563 32.3694 0.93725 32.3694H4.68619C5.20381 32.3694 5.62344 31.9498 5.62344 31.4322C5.62344 30.9145 5.20381 30.4949 4.68619 30.4949ZM31.0538 26.6835C30.5361 26.6835 30.1165 27.1031 30.1165 27.6207V30.4949H27.3048C26.7872 30.4949 26.3676 30.9145 26.3676 31.4322C26.3676 31.9498 26.7872 32.3694 27.3048 32.3694H31.0538C31.5714 32.3694 31.991 31.9498 31.991 31.4322V27.6207C31.991 27.1031 31.5714 26.6835 31.0538 26.6835Z" fill="#333333"/>
<path d="M29.5182 8.06733L16.4649 0.5047C16.3221 0.42198 16.1601 0.378418 15.9951 0.378418C15.8301 0.378418 15.668 0.42198 15.5252 0.5047L2.46659 8.06726C2.17871 8.23408 1.99902 8.54464 1.99902 8.87764L1.99921 8.8832V23.8785C1.99921 24.2146 2.1819 24.5293 2.47609 24.6949L15.5253 32.2521C15.6683 32.3342 15.8302 32.3777 15.9951 32.3784C16.1643 32.3784 16.3296 32.3305 16.465 32.2521L29.5089 24.6948L29.5154 24.6911C29.8177 24.4729 29.9806 24.2896 29.9852 23.8898C29.9853 23.886 29.9856 23.8823 29.9856 23.8786V8.88332L29.9858 8.87776C29.9854 8.7136 29.9421 8.5524 29.86 8.41021C29.778 8.26802 29.6601 8.1498 29.5182 8.06733ZM15.0578 29.815L4.81871 23.8827L12.7124 19.3559C13.1615 19.0984 13.3167 18.5256 13.0591 18.0766C12.8017 17.6276 12.229 17.4724 11.7799 17.7299L3.87352 22.2606V10.4977L15.0578 16.9208V29.815ZM15.9951 15.2975L4.81734 8.87495L15.9951 2.39883L27.1728 8.87495L15.9951 15.2975ZM28.1172 22.2606L20.2103 17.7298C19.7613 17.4724 19.1885 17.6275 18.931 18.0766C18.6735 18.5256 18.8287 19.0983 19.2778 19.3558L27.1715 23.8826L16.9323 29.8149V16.9208L28.1171 10.4977L28.1172 22.2606Z" fill="#32949B"/>
</svg>
