<svg width="32" height="33" viewBox="0 0 32 33" fill="none" xmlns="http://www.w3.org/2000/svg">
<path d="M26.093 17.2278L26.567 17.7018C26.9087 18.0436 26.9087 18.5981 26.567 18.9398C26.3962 19.1107 26.1721 19.1961 25.948 19.1961C25.7239 19.1961 25.4999 19.1107 25.329 18.9398L23.3859 16.9967C23.0442 16.655 23.0442 16.1004 23.3859 15.7587L25.329 13.8156C25.6707 13.4739 26.2253 13.4739 26.567 13.8156C26.9087 14.1573 26.9087 14.7119 26.567 15.0536L26.1623 15.4583C28.4667 15.1453 30.2495 13.1665 30.2495 10.7774C30.2495 8.17187 28.1299 6.0523 25.5244 6.0523H24.2815C23.7983 6.0523 23.4062 5.66018 23.4062 5.17703C23.4062 4.69388 23.7983 4.30176 24.2815 4.30176H25.5244C29.0948 4.30176 32 7.20697 32 10.7774C32 14.1566 29.398 16.9386 26.093 17.2278ZM8.61409 26.9594C8.77822 27.1236 8.87042 27.3463 8.87042 27.5784C8.87042 27.8106 8.77822 28.0332 8.61409 28.1974L6.67098 30.1405C6.50013 30.3114 6.27606 30.3968 6.05199 30.3968C5.82792 30.3968 5.60385 30.3114 5.433 30.1405C5.09129 29.7988 5.09129 29.2443 5.433 28.9025L5.90705 28.4285C2.60201 28.1393 0 25.3573 0 21.9781C0 18.4077 2.90521 15.5025 6.47562 15.5025H7.71851C8.20166 15.5025 8.59379 15.8946 8.59379 16.3777C8.59379 16.8609 8.20166 17.253 7.71851 17.253H6.47562C3.87011 17.253 1.75055 19.3726 1.75055 21.9781C1.75055 24.3672 3.5326 26.346 5.83772 26.659L5.433 26.2543C5.09129 25.9126 5.09129 25.358 5.433 25.0163C5.7747 24.6746 6.32928 24.6746 6.67098 25.0163L8.61409 26.9594Z" fill="#32949B"/>
<path d="M19.1038 0.378418H12.8978C11.2572 0.378418 9.92188 1.71374 9.92188 3.35435V7.00039C9.92188 8.641 11.2572 9.97632 12.8978 9.97632H19.1038C20.7445 9.97632 22.0798 8.641 22.0798 7.00039V3.35435C22.0798 1.71374 20.7445 0.378418 19.1038 0.378418ZM20.3292 7.00039C20.3292 7.6761 19.7796 8.22577 19.1038 8.22577H12.8978C12.2221 8.22577 11.6724 7.6761 11.6724 7.00039V3.35435C11.6724 2.67864 12.2221 2.12897 12.8978 2.12897H19.1038C19.7796 2.12897 20.3292 2.67864 20.3292 3.35435V7.00039ZM19.1038 11.5791H12.8978C11.2572 11.5791 9.92188 12.9144 9.92188 14.555V18.2011C9.92188 19.8417 11.2572 21.177 12.8978 21.177H19.1038C20.7445 21.177 22.0798 19.8417 22.0798 18.2011V14.555C22.0798 12.9144 20.7445 11.5791 19.1038 11.5791ZM20.3292 18.2011C20.3292 18.8768 19.7796 19.4265 19.1038 19.4265H12.8978C12.2221 19.4265 11.6724 18.8768 11.6724 18.2011V14.555C11.6724 13.8793 12.2221 13.3297 12.8978 13.3297H19.1038C19.7796 13.3297 20.3292 13.8793 20.3292 14.555V18.2011ZM19.1038 22.7798H12.8978C11.2572 22.7798 9.92188 24.1151 9.92188 25.7557V29.4018C9.92188 31.0424 11.2572 32.3777 12.8978 32.3777H19.1038C20.7445 32.3777 22.0798 31.0424 22.0798 29.4018V25.7557C22.0798 24.1151 20.7445 22.7798 19.1038 22.7798ZM20.3292 29.4018C20.3292 30.0775 19.7796 30.6272 19.1038 30.6272H12.8978C12.2221 30.6272 11.6724 30.0775 11.6724 29.4018V25.7557C11.6724 25.08 12.2221 24.5304 12.8978 24.5304H19.1038C19.7796 24.5304 20.3292 25.08 20.3292 25.7557V29.4018Z" fill="#333333"/>
</svg>
