<svg width="32" height="33" viewBox="0 0 32 33" fill="none" xmlns="http://www.w3.org/2000/svg">
<path fill-rule="evenodd" clip-rule="evenodd" d="M15.9997 3.57836C13.3653 3.57911 10.7952 4.39272 8.64032 5.90817C6.4854 7.42362 4.85058 9.56709 3.95895 12.0461C3.06733 14.525 2.96233 17.2187 3.6583 19.7596C4.35426 22.3004 5.81728 24.5646 7.84771 26.2432C9.87813 27.9218 12.377 28.933 15.0034 29.1388C17.6298 29.3446 20.2557 28.735 22.5228 27.3931C24.7899 26.0513 26.5878 24.0426 27.671 21.6412C28.7543 19.2398 29.0701 16.5626 28.5755 13.975C28.5101 13.5641 28.6074 13.1439 28.8466 12.8035C29.0859 12.4631 29.4483 12.2293 29.8571 12.1517C30.2658 12.0741 30.6887 12.1587 31.0361 12.3877C31.3835 12.6167 31.628 12.9719 31.7178 13.3782C31.9034 14.351 31.9994 15.3542 31.9994 16.3781C31.9994 25.2148 24.8364 32.3779 15.9997 32.3779C7.16308 32.3779 0 25.2148 0 16.3781C0 7.54149 7.16308 0.378418 15.9997 0.378418C18.5517 0.378418 20.9676 0.976807 23.1116 2.04239C23.3013 2.13493 23.4709 2.26411 23.6105 2.42248C23.7501 2.58085 23.8569 2.76528 23.9249 2.96514C23.9929 3.165 24.0207 3.37633 24.0066 3.58697C23.9926 3.79761 23.937 4.00339 23.843 4.19244C23.7491 4.38149 23.6186 4.55008 23.4593 4.6885C23.2999 4.82691 23.1146 4.93242 22.9143 4.99893C22.7139 5.06543 22.5024 5.09164 22.2919 5.07602C22.0813 5.06041 21.876 5.00328 21.6876 4.90794C19.9202 4.03024 17.9731 3.57508 15.9997 3.57836Z" fill="#333333"/>
<path fill-rule="evenodd" clip-rule="evenodd" d="M31.782 5.17208C31.888 5.3536 31.9571 5.55422 31.9855 5.76247C32.0139 5.97072 32.001 6.18253 31.9475 6.38579C31.894 6.58905 31.801 6.77978 31.6738 6.94708C31.5465 7.11439 31.3876 7.25498 31.206 7.36084L30.8508 7.56723C25.0992 10.9223 20.478 15.9156 17.5775 21.9094C17.4663 22.1391 17.3018 22.339 17.0977 22.4922C16.8936 22.6455 16.6558 22.7476 16.4041 22.7902C16.1525 22.8328 15.8943 22.8146 15.6511 22.7371C15.408 22.6595 15.1869 22.525 15.0063 22.3446L8.58562 15.9287C8.42923 15.782 8.30391 15.6055 8.2171 15.4094C8.1303 15.2134 8.08377 15.0019 8.08029 14.7876C8.07681 14.5732 8.11644 14.3603 8.19684 14.1616C8.27724 13.9628 8.39676 13.7823 8.5483 13.6306C8.69984 13.479 8.88032 13.3593 9.079 13.2788C9.27769 13.1983 9.49053 13.1585 9.7049 13.1618C9.91926 13.1651 10.1308 13.2115 10.3269 13.2982C10.5229 13.3849 10.6996 13.51 10.8464 13.6663L15.7263 18.5414C18.9259 12.8399 23.5906 8.09667 29.2381 4.80248L29.5933 4.59609C29.7748 4.49014 29.9754 4.42099 30.1836 4.3926C30.3919 4.3642 30.6037 4.37712 30.807 4.43061C31.0102 4.4841 31.201 4.57711 31.3683 4.70434C31.5356 4.83156 31.6762 4.9905 31.782 5.17208Z" fill="#32949B"/>
</svg>
