<svg width="32" height="33" viewBox="0 0 32 33" fill="none" xmlns="http://www.w3.org/2000/svg">
<path d="M29.559 22.8135C30.0571 23.0484 30.6546 22.8372 30.8597 22.3261C31.6174 20.4381 32.0057 18.4189 31.9999 16.3784C31.9999 12.1349 30.3142 8.06526 27.3137 5.06469C24.3131 2.06412 20.2434 0.378418 16 0.378418C11.7566 0.378418 7.68691 2.06412 4.68634 5.06469C1.68577 8.06526 6.96036e-05 12.1349 6.96036e-05 16.3784C-0.00597521 18.4176 0.381771 20.4355 1.13863 22.3224C1.34428 22.835 1.94432 23.0456 2.44293 22.8079L2.56617 22.7492C3.06518 22.5113 3.27284 21.9148 3.07142 21.4C2.70794 20.471 2.44719 19.5051 2.29378 18.5195C2.20427 17.9444 2.6666 17.4483 3.24864 17.4483H4.48633C4.99955 17.4483 5.42439 17.8382 5.51913 18.3426C5.90499 20.3969 6.8866 22.2981 8.34808 23.8053C8.46926 23.9303 8.54003 24.0964 8.54003 24.2705C8.54003 24.6283 8.24999 24.9183 7.89221 24.9183H5.71005C5.06662 24.9102 4.43579 25.0969 3.90039 25.4538C3.36499 25.8108 2.95005 26.3213 2.71006 26.9183L2.28006 27.9883C2.08458 28.4762 2.01229 29.0047 2.06957 29.5272C2.12685 30.0496 2.31195 30.55 2.60849 30.9839C2.90504 31.4179 3.30391 31.7721 3.76985 32.0153C4.2358 32.2585 4.75448 32.3831 5.28005 32.3783H26.72C27.2455 32.3831 27.7642 32.2585 28.2302 32.0153C28.6961 31.7721 29.095 31.4179 29.3915 30.9839C29.6881 30.55 29.8731 30.0496 29.9304 29.5272C29.9877 29.0047 29.9154 28.4762 29.7199 27.9883L29.2899 26.9183C29.05 26.3213 28.635 25.8108 28.0996 25.4538C27.5642 25.0969 26.9334 24.9102 26.29 24.9183H24.1178C23.76 24.9183 23.47 24.6283 23.47 24.2705C23.47 24.0964 23.5407 23.9303 23.6619 23.8053C25.1234 22.2981 26.105 20.3969 26.4909 18.3426C26.5856 17.8382 27.0105 17.4483 27.5237 17.4483H28.7522C29.3339 17.4483 29.7961 17.9439 29.7072 18.5188C29.5543 19.5067 29.2936 20.475 28.9298 21.4062C28.7281 21.9226 28.9378 22.5206 29.4392 22.7571L29.559 22.8135ZM26.29 27.0483C26.5049 27.0454 26.7157 27.1079 26.8943 27.2276C27.0729 27.3473 27.2109 27.5184 27.29 27.7183L27.72 28.7883C27.7836 28.9508 27.8065 29.1264 27.7866 29.2997C27.7668 29.4731 27.7049 29.639 27.6063 29.7829C27.5077 29.9269 27.3754 30.0446 27.2209 30.1257C27.0664 30.2068 26.8944 30.2489 26.72 30.2483H5.28005C5.10556 30.2489 4.93357 30.2068 4.77907 30.1257C4.62458 30.0446 4.49226 29.9269 4.39366 29.7829C4.29506 29.639 4.23316 29.4731 4.21336 29.2997C4.19355 29.1264 4.21645 28.9508 4.28005 28.7883L4.70005 27.7183C4.77913 27.5184 4.91712 27.3473 5.09572 27.2276C5.27432 27.1079 5.48508 27.0454 5.70005 27.0483H26.29ZM11.6691 24.9093C11.1172 24.9087 10.67 24.4612 10.67 23.9093V23.8483C10.67 23.5645 10.7828 23.2924 10.9834 23.0917C11.1841 22.8911 11.4562 22.7783 11.74 22.7783H20.27C20.5538 22.7783 20.8259 22.8911 21.0266 23.0917C21.2272 23.2924 21.34 23.5645 21.34 23.8483V23.9174C21.34 24.47 20.8917 24.9179 20.339 24.9174L11.6691 24.9093ZM22.6596 21.7183C22.6636 21.7183 22.6658 21.7136 22.6631 21.7106C22.3644 21.3769 21.9987 21.1098 21.5898 20.9268C21.1778 20.7423 20.7314 20.6474 20.28 20.6483H11.73C11.2786 20.6474 10.8322 20.7423 10.4202 20.9268C10.3698 20.9493 10.3202 20.9731 10.2712 20.9982C9.71998 21.2801 8.98252 21.2782 8.66579 20.7463C8.05068 19.7132 7.65857 18.5576 7.52057 17.3542C7.33743 15.7571 7.60932 14.1408 8.30491 12.6916C9.00049 11.2423 10.0914 10.0191 11.452 9.16291C12.8126 8.30674 14.3875 7.85248 15.995 7.85248C17.6026 7.85248 19.1774 8.30674 20.538 9.16291C21.8986 10.0191 22.9895 11.2423 23.6851 12.6916C24.3807 14.1408 24.6526 15.7571 24.4694 17.3542C24.2867 18.9481 23.6581 20.4581 22.656 21.7108C22.6536 21.7138 22.6557 21.7183 22.6596 21.7183ZM27.5732 15.3084C27.0602 15.3084 26.6354 14.9188 26.5405 14.4146C26.1102 12.131 24.9438 10.0409 23.207 8.47223C21.246 6.70095 18.6975 5.72037 16.055 5.72037C13.4125 5.72037 10.864 6.70095 8.90296 8.47223C7.16624 10.0409 5.99977 12.131 5.56954 14.4146C5.47456 14.9188 5.04982 15.3084 4.53679 15.3084H3.25406C2.67004 15.3084 2.20711 14.809 2.29941 14.2323C2.78963 11.1694 4.29525 8.34746 6.59044 6.23013C9.15217 3.86692 12.5097 2.55478 15.995 2.55478C19.4803 2.55478 22.8378 3.86692 25.3996 6.23013C27.6948 8.34746 29.2004 11.1694 29.6906 14.2323C29.7829 14.809 29.32 15.3084 28.7359 15.3084H27.5732Z" fill="#333333"/>
</svg>
