<svg width="32" height="33" viewBox="0 0 32 33" fill="none" xmlns="http://www.w3.org/2000/svg">
<path d="M31.707 8.67146L23.7071 0.67148C23.3163 0.280731 22.6836 0.280731 22.2931 0.67148C21.9026 1.06223 21.9023 1.69498 22.2931 2.08548L23.5861 3.37847L20.0001 6.96447L16.7071 3.67147C16.3163 3.28073 15.6836 3.28073 15.2931 3.67147C14.9026 4.06222 14.9023 4.69497 15.2931 5.08547L16.5861 6.37847L6.00009 16.9644C5.21984 17.7442 5.21984 19.0127 6.00009 19.7927L6.58608 20.3784L4.70734 22.2569C4.42791 22.5349 4.20635 22.8656 4.05547 23.2297C3.9046 23.5938 3.8274 23.9843 3.82834 24.3784C3.82834 25.1214 4.10709 25.8169 4.59809 26.3667L0.293097 30.6714C0.200181 30.7642 0.12647 30.8744 0.0761779 30.9957C0.025886 31.1171 0 31.2471 0 31.3784C0 31.5097 0.025886 31.6398 0.0761779 31.7611C0.12647 31.8824 0.200181 31.9926 0.293097 32.0854C0.488346 32.2807 0.744346 32.3784 1.0001 32.3784C1.25584 32.3784 1.51184 32.2807 1.70709 32.0854L6.01209 27.7804C6.57884 28.2847 7.28583 28.5484 8.00008 28.5484C8.76758 28.5484 9.53633 28.2559 10.1211 27.6714L12.0001 25.7924L12.5861 26.3784C12.9758 26.7687 13.4883 26.9634 14.0001 26.9634C14.5118 26.9634 15.0246 26.7687 15.4141 26.3784L26 15.7925L27.293 17.0854C27.4883 17.2807 27.7443 17.3784 28 17.3784C28.2558 17.3784 28.5118 17.2807 28.707 17.0854C28.8 16.9926 28.8737 16.8824 28.924 16.7611C28.9743 16.6398 29.0001 16.5098 29.0001 16.3785C29.0001 16.2471 28.9743 16.1171 28.924 15.9958C28.8737 15.8745 28.8 15.7643 28.707 15.6715L25.414 12.3785L29 8.79246L30.293 10.0855C30.4883 10.2807 30.7443 10.3785 31 10.3785C31.2558 10.3785 31.5118 10.2807 31.707 10.0855C31.8 9.99266 31.8737 9.88245 31.924 9.76114C31.9742 9.63982 32.0001 9.50979 32.0001 9.37846C32.0001 9.24714 31.9742 9.1171 31.924 8.99579C31.8737 8.87448 31.8 8.76427 31.707 8.67146ZM8.70708 26.2569C8.51959 26.4444 8.26533 26.5498 8.00019 26.5499C7.73504 26.55 7.48071 26.4448 7.29308 26.2574L6.12109 25.0852C5.93159 24.8967 5.82809 24.6457 5.82809 24.3787C5.82809 24.1117 5.93159 23.8607 6.12109 23.6717L8.00008 21.7924L10.5861 24.3784L8.70708 26.2569ZM22.0001 16.9644L18.7071 13.6715C18.3163 13.2807 17.6836 13.2807 17.2931 13.6715C16.9026 14.0622 16.9023 14.695 17.2931 15.0855L20.5861 18.3784L18.0001 20.9644L14.7071 17.6714C14.3163 17.2807 13.6836 17.2807 13.2931 17.6714C12.9026 18.0622 12.9023 18.6949 13.2931 19.0854L16.5861 22.3784L14.0001 24.9644L7.41408 18.3784L18.0001 7.79247L24.5861 14.3785L22.0001 16.9644ZM24.0001 10.9645L21.4141 8.37847L25 4.79247L27.586 7.37847L24.0001 10.9645Z" fill="#32949B"/>
</svg>
