<svg width="34" height="35" viewBox="0 0 34 35" fill="none" xmlns="http://www.w3.org/2000/svg">
<path d="M28.9133 18.3666L25.0781 14.5314M15.4902 27.9545C15.4902 25.4989 16.4657 23.1438 18.2021 21.4074L28.3709 11.2386C29.43 10.1796 31.147 10.1796 32.2061 11.2386C33.2652 12.2977 33.2652 14.0148 32.2061 15.0737L22.0372 25.2426C21.1775 26.1024 20.1568 26.7844 19.0334 27.2497C17.9101 27.715 16.7061 27.9545 15.4902 27.9545Z" stroke="#32949B" stroke-width="2" stroke-miterlimit="10" stroke-linecap="round" stroke-linejoin="round"/>
<path d="M25.4068 29.5231V30.6666C25.4068 32.1642 24.1926 33.3784 22.6949 33.3784H3.71186C2.21417 33.3784 1 32.1642 1 30.6666V4.09028C1 2.59259 2.21417 1.37842 3.71186 1.37842H18.8597C19.2159 1.37841 19.5685 1.44855 19.8975 1.58484C20.2265 1.72113 20.5255 1.92089 20.7773 2.17272L24.6125 6.00784C24.94 6.33531 25.1782 6.74123 25.3043 7.18689" stroke="#333333" stroke-width="2" stroke-miterlimit="10" stroke-linecap="round" stroke-linejoin="round"/>
<path d="M6.42383 9.51416H14.5594M6.42383 14.9379H14.5594" stroke="#333333" stroke-width="2" stroke-miterlimit="10" stroke-linecap="round" stroke-linejoin="round"/>
<path d="M6.42383 27.955C6.42383 26.4573 7.638 25.2432 9.13569 25.2432C10.6334 25.2432 11.8476 26.4573 11.8476 27.955H15.49" stroke="#32949B" stroke-width="2" stroke-miterlimit="10" stroke-linecap="round" stroke-linejoin="round"/>
</svg>
