<svg width="32" height="30" viewBox="0 0 32 30" fill="none" xmlns="http://www.w3.org/2000/svg">
<path d="M31.9334 21.5514C31.7659 20.8 31.3034 20.1619 30.631 19.7547L22.9106 15.0785C22.8018 15.0129 22.689 14.9545 22.5728 14.9034V4.8079C22.5728 3.52327 21.9751 2.35563 20.9331 1.6044C19.891 0.8531 18.5943 0.655219 17.3755 1.06105L15.8065 1.58369C14.3595 0.50964 12.3001 0.62813 10.9887 1.93966L9.75065 3.17768C9.38417 3.5441 9.38417 4.13831 9.75065 4.50479L13.6543 8.40847C13.7415 8.49564 13.8449 8.56479 13.9588 8.61197C14.0726 8.65914 14.1946 8.68343 14.3179 8.68343C14.4411 8.68343 14.5632 8.65914 14.677 8.61197C14.7909 8.56479 14.8943 8.49564 14.9814 8.40847L16.2195 7.17045H16.2194C16.918 6.4719 17.3028 5.54305 17.3028 4.55503C17.3028 4.06686 17.2085 3.59327 17.0292 3.1546L17.9687 2.84167C18.6082 2.62871 19.2886 2.73256 19.8356 3.12676C20.3824 3.52102 20.696 4.13374 20.696 4.80783V14.6497H12.3561C11.9799 14.6497 11.6329 14.4624 11.4506 14.1608L5.42555 4.19255C4.62339 2.8655 2.84935 2.40618 1.47088 3.16842L1.46588 3.17124C0.779519 3.55192 0.292418 4.17015 0.0940996 4.91256C-0.100215 5.63996 0.00857863 6.39764 0.400399 7.04602L7.56289 18.8962C8.08296 19.7566 9.0454 20.2911 10.0746 20.2911H13.1809V25.2999L11.686 28.0333H10.3657C9.84749 28.0333 9.42733 28.4534 9.42733 28.9717C9.42733 29.4899 9.84749 29.9101 10.3657 29.9101H21.6344C22.1526 29.9101 22.5728 29.4899 22.5728 28.9717C22.5728 28.4534 22.1526 28.0333 21.6344 28.0333H20.314L18.8191 25.2999V20.2911H20.2196C20.4231 20.2911 20.6204 20.3456 20.7904 20.4485L27.5449 24.5397C28.0204 24.8277 28.552 24.965 29.0785 24.965C30.0376 24.9649 30.9797 24.5092 31.5335 23.6779C31.9557 23.044 32.0977 22.2889 31.9334 21.5514ZM14.8923 5.84335L14.3179 6.41784L11.7413 3.8412L12.3157 3.26671C12.6599 2.92262 13.1173 2.73312 13.604 2.73312C14.0906 2.73312 14.5481 2.92262 14.8923 3.26677C15.2364 3.61092 15.4259 4.06836 15.4259 4.55509C15.4259 5.04175 15.2364 5.4992 14.8923 5.84335ZM13.8253 28.0333L14.6758 26.4782H17.3243L18.1748 28.0333H13.8253ZM16.9423 24.6013H15.0578V20.2911H16.9423V24.6013ZM29.9715 22.6372C29.6684 23.0921 29.0024 23.2282 28.5172 22.9342L21.7626 18.843C21.2994 18.5625 20.7658 18.4142 20.2196 18.4142H10.0747C9.69841 18.4142 9.35145 18.2269 9.16914 17.9253L2.00665 6.0752C1.88122 5.86768 1.84593 5.62676 1.90737 5.39685C1.97306 5.15086 2.14003 4.94309 2.37752 4.81178L2.38177 4.8094C2.88007 4.53569 3.53777 4.69748 3.81936 5.16331L9.84443 15.1317C10.3645 15.9921 11.3269 16.5265 12.3561 16.5265H21.3675C21.571 16.5265 21.7684 16.5809 21.9383 16.6839L29.6587 21.3601C29.8892 21.4997 30.0464 21.7126 30.1014 21.9597C30.1534 22.1928 30.1073 22.4334 29.9715 22.6372Z" fill="#32949B"/>
</svg>
