<svg width="32" height="33" viewBox="0 0 32 33" fill="none" xmlns="http://www.w3.org/2000/svg">
<path d="M4.68619 0.854492H0.93725C0.419688 0.854492 6.25001e-05 1.27412 6.25001e-05 1.79174V5.60318C6.25001e-05 6.1208 0.419625 6.54043 0.937313 6.54043C1.45494 6.54043 1.87456 6.1208 1.87456 5.60318V2.72899H4.68625C5.20388 2.72899 5.6235 2.30937 5.6235 1.79174C5.62344 1.27412 5.20381 0.854492 4.68619 0.854492ZM31.0538 0.854492H27.3048C26.7872 0.854492 26.3676 1.27412 26.3676 1.79174C26.3676 2.30937 26.7871 2.72899 27.3048 2.72899H30.1165V5.60318C30.1165 6.1208 30.5361 6.54043 31.0538 6.54043C31.5714 6.54043 31.991 6.1208 31.991 5.60318V1.79174C31.991 1.27412 31.5714 0.854492 31.0538 0.854492ZM4.68619 30.971H1.8745V28.0968C1.8745 27.5792 1.45487 27.1596 0.93725 27.1596C0.419625 27.1596 0 27.5792 0 28.0968V31.9082C0 32.4259 0.419563 32.8455 0.93725 32.8455H4.68619C5.20381 32.8455 5.62344 32.4259 5.62344 31.9082C5.62344 31.3906 5.20381 30.971 4.68619 30.971ZM31.0538 27.1596C30.5361 27.1596 30.1165 27.5792 30.1165 28.0968V30.971H27.3048C26.7872 30.971 26.3676 31.3906 26.3676 31.9082C26.3676 32.4259 26.7872 32.8455 27.3048 32.8455H31.0538C31.5714 32.8455 31.991 32.4259 31.991 31.9082V28.0968C31.991 27.5792 31.5714 27.1596 31.0538 27.1596Z" fill="#333333"/>
<path d="M29.5192 8.5434L16.4659 0.980774C16.3231 0.898054 16.161 0.854492 15.996 0.854492C15.831 0.854492 15.669 0.898054 15.5262 0.980774L2.46756 8.54334C2.17969 8.71015 2 9.02071 2 9.35371L2.00019 9.35927V24.3545C2.00019 24.6907 2.18288 25.0053 2.47706 25.171L15.5262 32.7282C15.6693 32.8103 15.8312 32.8538 15.9961 32.8545C16.1653 32.8545 16.3306 32.8066 16.466 32.7282L29.5099 25.1709L29.5164 25.1671C29.8187 24.949 29.9816 24.7657 29.9862 24.3658C29.9863 24.3621 29.9866 24.3584 29.9866 24.3546V9.3594L29.9868 9.35384C29.9864 9.18968 29.943 9.02848 29.861 8.88629C29.779 8.7441 29.6611 8.62588 29.5192 8.5434ZM15.0588 30.2911L4.81969 24.3588L12.7134 19.832C13.1624 19.5745 13.3177 19.0017 13.0601 18.5527C12.8027 18.1036 12.2299 17.9485 11.7809 18.206L3.8745 22.7367V10.9738L15.0588 17.3969V30.2911ZM15.9961 15.7736L4.81831 9.35102L15.9961 2.8749L27.1738 9.35102L15.9961 15.7736ZM28.1182 22.7367L20.2113 18.2059C19.7623 17.9485 19.1895 18.1036 18.932 18.5526C18.6744 19.0017 18.8297 19.5744 19.2788 19.8319L27.1724 24.3586L16.9333 30.291V17.3969L28.1181 10.9738L28.1182 22.7367Z" fill="#32949B"/>
</svg>
