<svg width="32" height="33" viewBox="0 0 32 33" fill="none" xmlns="http://www.w3.org/2000/svg">
<path d="M31.707 9.14754L23.7071 1.14755C23.3163 0.756805 22.6836 0.756805 22.2931 1.14755C21.9026 1.5383 21.9023 2.17105 22.2931 2.56155L23.5861 3.85455L20.0001 7.44054L16.7071 4.14755C16.3163 3.7568 15.6836 3.7568 15.2931 4.14755C14.9026 4.5383 14.9023 5.17105 15.2931 5.56155L16.5861 6.85454L6.00009 17.4405C5.21984 18.2203 5.21984 19.4888 6.00009 20.2688L6.58608 20.8545L4.70734 22.733C4.42791 23.011 4.20635 23.3416 4.05547 23.7058C3.9046 24.0699 3.8274 24.4604 3.82834 24.8545C3.82834 25.5975 4.10709 26.293 4.59809 26.8428L0.293097 31.1475C0.200181 31.2403 0.12647 31.3505 0.0761779 31.4718C0.025886 31.5931 0 31.7232 0 31.8545C0 31.9858 0.025886 32.1159 0.0761779 32.2372C0.12647 32.3585 0.200181 32.4687 0.293097 32.5615C0.488346 32.7567 0.744346 32.8545 1.0001 32.8545C1.25584 32.8545 1.51184 32.7567 1.70709 32.5615L6.01209 28.2565C6.57884 28.7608 7.28583 29.0245 8.00008 29.0245C8.76758 29.0245 9.53633 28.732 10.1211 28.1475L12.0001 26.2685L12.5861 26.8545C12.9758 27.2448 13.4883 27.4395 14.0001 27.4395C14.5118 27.4395 15.0246 27.2448 15.4141 26.8545L26 16.2685L27.293 17.5615C27.4883 17.7568 27.7443 17.8545 28 17.8545C28.2558 17.8545 28.5118 17.7568 28.707 17.5615C28.8 17.4687 28.8737 17.3585 28.924 17.2372C28.9743 17.1159 29.0001 16.9858 29.0001 16.8545C29.0001 16.7232 28.9743 16.5932 28.924 16.4719C28.8737 16.3505 28.8 16.2403 28.707 16.1475L25.414 12.8545L29 9.26854L30.293 10.5615C30.4883 10.7568 30.7443 10.8545 31 10.8545C31.2558 10.8545 31.5118 10.7568 31.707 10.5615C31.8 10.4687 31.8737 10.3585 31.924 10.2372C31.9742 10.1159 32.0001 9.98586 32.0001 9.85454C32.0001 9.72321 31.9742 9.59318 31.924 9.47187C31.8737 9.35055 31.8 9.24034 31.707 9.14754ZM8.70708 26.733C8.51959 26.9205 8.26533 27.0258 8.00019 27.0259C7.73504 27.026 7.48071 26.9208 7.29308 26.7335L6.12109 25.5613C5.93159 25.3728 5.82809 25.1218 5.82809 24.8548C5.82809 24.5878 5.93159 24.3368 6.12109 24.1478L8.00008 22.2685L10.5861 24.8545L8.70708 26.733ZM22.0001 17.4405L18.7071 14.1475C18.3163 13.7568 17.6836 13.7568 17.2931 14.1475C16.9026 14.5383 16.9023 15.171 17.2931 15.5615L20.5861 18.8545L18.0001 21.4405L14.7071 18.1475C14.3163 17.7568 13.6836 17.7568 13.2931 18.1475C12.9026 18.5383 12.9023 19.171 13.2931 19.5615L16.5861 22.8545L14.0001 25.4405L7.41408 18.8545L18.0001 8.26854L24.5861 14.8545L22.0001 17.4405ZM24.0001 11.4405L21.4141 8.85454L25 5.26855L27.586 7.85454L24.0001 11.4405Z" fill="#32949B"/>
</svg>
