<svg width="32" height="33" viewBox="0 0 32 33" fill="none" xmlns="http://www.w3.org/2000/svg">
<path d="M26.093 17.7034L26.567 18.1774C26.9087 18.5191 26.9087 19.0737 26.567 19.4154C26.3962 19.5863 26.1721 19.6717 25.948 19.6717C25.7239 19.6717 25.4999 19.5863 25.329 19.4154L23.3859 17.4723C23.0442 17.1306 23.0442 16.576 23.3859 16.2343L25.329 14.2912C25.6707 13.9495 26.2253 13.9495 26.567 14.2912C26.9087 14.6329 26.9087 15.1875 26.567 15.5292L26.1623 15.9339C28.4667 15.6209 30.2495 13.6421 30.2495 11.253C30.2495 8.64745 28.1299 6.52789 25.5244 6.52789H24.2815C23.7983 6.52789 23.4062 6.13577 23.4062 5.65262C23.4062 5.16947 23.7983 4.77734 24.2815 4.77734H25.5244C29.0948 4.77734 32 7.68255 32 11.253C32 14.6322 29.398 17.4142 26.093 17.7034ZM8.61409 27.435C8.77822 27.5992 8.87042 27.8219 8.87042 28.054C8.87042 28.2862 8.77822 28.5088 8.61409 28.673L6.67098 30.6161C6.50013 30.787 6.27606 30.8724 6.05199 30.8724C5.82792 30.8724 5.60385 30.787 5.433 30.6161C5.09129 30.2744 5.09129 29.7198 5.433 29.3781L5.90705 28.9041C2.60201 28.6149 0 25.8329 0 22.4537C0 18.8833 2.90521 15.978 6.47562 15.978H7.71851C8.20166 15.978 8.59379 16.3702 8.59379 16.8533C8.59379 17.3365 8.20166 17.7286 7.71851 17.7286H6.47562C3.87011 17.7286 1.75055 19.8482 1.75055 22.4537C1.75055 24.8428 3.5326 26.8216 5.83772 27.1346L5.433 26.7299C5.09129 26.3882 5.09129 25.8336 5.433 25.4919C5.7747 25.1502 6.32928 25.1502 6.67098 25.4919L8.61409 27.435Z" fill="#32949B"/>
<path d="M19.1038 0.854492H12.8978C11.2572 0.854492 9.92188 2.18981 9.92188 3.83042V7.47646C9.92188 9.11707 11.2572 10.4524 12.8978 10.4524H19.1038C20.7445 10.4524 22.0798 9.11707 22.0798 7.47646V3.83042C22.0798 2.18981 20.7445 0.854492 19.1038 0.854492ZM20.3292 7.47646C20.3292 8.15217 19.7796 8.70185 19.1038 8.70185H12.8978C12.2221 8.70185 11.6724 8.15217 11.6724 7.47646V3.83042C11.6724 3.15471 12.2221 2.60504 12.8978 2.60504H19.1038C19.7796 2.60504 20.3292 3.15471 20.3292 3.83042V7.47646ZM19.1038 12.0552H12.8978C11.2572 12.0552 9.92188 13.3905 9.92188 15.0311V18.6772C9.92188 20.3178 11.2572 21.6531 12.8978 21.6531H19.1038C20.7445 21.6531 22.0798 20.3178 22.0798 18.6772V15.0311C22.0798 13.3905 20.7445 12.0552 19.1038 12.0552ZM20.3292 18.6772C20.3292 19.3529 19.7796 19.9025 19.1038 19.9025H12.8978C12.2221 19.9025 11.6724 19.3529 11.6724 18.6772V15.0311C11.6724 14.3554 12.2221 13.8057 12.8978 13.8057H19.1038C19.7796 13.8057 20.3292 14.3554 20.3292 15.0311V18.6772ZM19.1038 23.2559H12.8978C11.2572 23.2559 9.92188 24.5912 9.92188 26.2318V29.8779C9.92188 31.5185 11.2572 32.8538 12.8978 32.8538H19.1038C20.7445 32.8538 22.0798 31.5185 22.0798 29.8779V26.2318C22.0798 24.5912 20.7445 23.2559 19.1038 23.2559ZM20.3292 29.8779C20.3292 30.5536 19.7796 31.1032 19.1038 31.1032H12.8978C12.2221 31.1032 11.6724 30.5536 11.6724 29.8779V26.2318C11.6724 25.5561 12.2221 25.0064 12.8978 25.0064H19.1038C19.7796 25.0064 20.3292 25.5561 20.3292 26.2318V29.8779Z" fill="#333333"/>
</svg>
