<svg width="31" height="33" viewBox="0 0 31 33" fill="none" xmlns="http://www.w3.org/2000/svg">
<path d="M30.108 9.64202C29.9414 2.85774 22.4739 -1.36298 16.5689 2.08603C15.6353 2.63128 14.4755 2.63128 13.5419 2.08603C7.61399 -1.3764 0.16897 2.88039 0.00285883 9.64202C-0.0731636 12.7319 1.38616 14.7115 2.09661 15.5144C2.32436 15.7718 2.68047 15.9172 3.02414 15.9172H5.58677C6.13906 15.9172 6.58677 16.3649 6.58677 16.9172V19.622C6.58677 20.1743 7.03449 20.622 7.58677 20.622H10.3506C10.8703 20.622 11.2916 21.0433 11.2916 21.5629C11.2916 22.0826 10.8703 22.5039 10.3506 22.5039C9.83094 22.5039 9.40966 22.9252 9.40966 23.4449C9.40966 23.9645 9.83094 24.3858 10.3506 24.3858C10.8703 24.3858 11.2916 24.8071 11.2916 25.3268V26.2678C11.2916 26.7874 10.8703 27.2087 10.3506 27.2087C9.83094 27.2087 9.40966 27.63 9.40966 28.1497C9.40966 28.6694 9.83094 29.0906 10.3506 29.0906C10.8703 29.0906 11.2916 29.5119 11.2916 30.0316V31.8545C11.2916 32.4068 11.7393 32.8545 12.2916 32.8545H17.8193C18.3716 32.8545 18.8193 32.4068 18.8193 31.8545V30.0316C18.8193 29.5119 19.2406 29.0906 19.7602 29.0906C20.2799 29.0906 20.7012 28.6694 20.7012 28.1497C20.7012 27.63 20.2799 27.2087 19.7602 27.2087C19.2406 27.2087 18.8193 26.7874 18.8193 26.2678V25.3268C18.8193 24.8071 19.2406 24.3858 19.7602 24.3858C20.2799 24.3858 20.7012 23.9645 20.7012 23.4449C20.7012 22.9252 20.2799 22.5039 19.7602 22.5039C19.2406 22.5039 18.8193 22.0826 18.8193 21.5629C18.8193 21.0433 19.2406 20.622 19.7602 20.622H22.5241C23.0764 20.622 23.5241 20.1743 23.5241 19.622V16.9172C23.5241 16.3649 23.9718 15.9172 24.5241 15.9172H27.0867C27.4304 15.9172 27.7864 15.7717 28.0162 15.5161C28.7281 14.7242 30.1852 12.7788 30.108 9.64202ZM16.9374 30.0316C16.9374 30.5513 16.5161 30.9726 15.9964 30.9726H14.1145C13.5948 30.9726 13.1735 30.5513 13.1735 30.0316C13.1735 29.5119 13.5948 29.0906 14.1145 29.0906H15.9964C16.5161 29.0906 16.9374 29.5119 16.9374 30.0316ZM16.9374 26.2087C16.9374 26.761 16.4896 27.2087 15.9374 27.2087H14.1735C13.6212 27.2087 13.1735 26.761 13.1735 26.2087V25.3858C13.1735 24.8335 13.6212 24.3858 14.1735 24.3858H15.9374C16.4896 24.3858 16.9374 24.8335 16.9374 25.3858V26.2087ZM16.9374 21.5629C16.9374 22.0826 16.5161 22.5039 15.9964 22.5039H14.1145C13.5948 22.5039 13.1735 22.0826 13.1735 21.5629C13.1735 21.0433 13.5948 20.622 14.1145 20.622H15.9964C16.5161 20.622 16.9374 21.0433 16.9374 21.5629ZM21.6422 17.7401C21.6422 18.2923 21.1945 18.7401 20.6422 18.7401H9.4687C8.91641 18.7401 8.4687 18.2923 8.4687 17.7401V16.9172C8.4687 16.3649 8.91641 15.9172 9.4687 15.9172H20.6422C21.1945 15.9172 21.6422 16.3649 21.6422 16.9172V17.7401ZM27.0925 13.6564C26.9223 13.9034 26.634 14.0352 26.334 14.0352H3.77694C3.47697 14.0352 3.18867 13.9034 3.01844 13.6564C2.25558 12.5496 1.84836 11.1464 1.88422 9.68825C2.01602 4.3232 7.92332 0.983722 12.5928 3.71107C14.1118 4.59833 15.9992 4.59833 17.5182 3.71107C22.1963 0.978641 28.0952 4.33173 28.2268 9.68825C28.2626 11.1464 27.8554 12.5496 27.0925 13.6564Z" fill="#32949B"/>
</svg>
