<svg width="34" height="35" viewBox="0 0 34 35" fill="none" xmlns="http://www.w3.org/2000/svg">
<path d="M28.9113 18.8432L25.0761 15.008M15.4883 28.4311C15.4883 25.9755 16.4637 23.6204 18.2001 21.884L28.369 11.7152C29.428 10.6561 31.1451 10.6561 32.2041 11.7152C33.2632 12.7742 33.2632 14.4913 32.2041 15.5503L22.0353 25.7192C21.1755 26.579 20.1548 27.261 19.0315 27.7263C17.9082 28.1916 16.7042 28.4311 15.4883 28.4311Z" stroke="#32949B" stroke-width="2" stroke-miterlimit="10" stroke-linecap="round" stroke-linejoin="round"/>
<path d="M25.4068 29.9992V31.1426C25.4068 32.6403 24.1926 33.8545 22.6949 33.8545H3.71186C2.21417 33.8545 1 32.6403 1 31.1426V4.56636C1 3.06866 2.21417 1.85449 3.71186 1.85449H18.8597C19.2159 1.85448 19.5685 1.92462 19.8975 2.06091C20.2265 2.1972 20.5255 2.39696 20.7773 2.6488L24.6125 6.48392C24.94 6.81138 25.1782 7.21731 25.3043 7.66297" stroke="#333333" stroke-width="2" stroke-miterlimit="10" stroke-linecap="round" stroke-linejoin="round"/>
<path d="M6.42188 9.99023H14.5575M6.42188 15.414H14.5575" stroke="#333333" stroke-width="2" stroke-miterlimit="10" stroke-linecap="round" stroke-linejoin="round"/>
<path d="M6.42188 28.4306C6.42188 26.9329 7.63604 25.7188 9.13374 25.7188C10.6314 25.7188 11.8456 26.9329 11.8456 28.4306H15.488" stroke="#32949B" stroke-width="2" stroke-miterlimit="10" stroke-linecap="round" stroke-linejoin="round"/>
</svg>
