<svg width="32" height="33" viewBox="0 0 32 33" fill="none" xmlns="http://www.w3.org/2000/svg">
<path fill-rule="evenodd" clip-rule="evenodd" d="M15.9997 4.05541C13.3653 4.05616 10.7952 4.86977 8.64032 6.38522C6.4854 7.90068 4.85058 10.0441 3.95895 12.5231C3.06733 15.0021 2.96233 17.6958 3.6583 20.2366C4.35426 22.7775 5.81728 25.0417 7.84771 26.7203C9.87813 28.3989 12.377 29.41 15.0034 29.6158C17.6298 29.8216 20.2557 29.212 22.5228 27.8702C24.7899 26.5284 26.5878 24.5197 27.671 22.1182C28.7543 19.7168 29.0701 17.0396 28.5755 14.452C28.5101 14.0411 28.6074 13.6209 28.8466 13.2806C29.0859 12.9402 29.4483 12.7064 29.8571 12.6288C30.2658 12.5511 30.6887 12.6358 31.0361 12.8647C31.3835 13.0937 31.628 13.449 31.7178 13.8552C31.9034 14.828 31.9994 15.8312 31.9994 16.8552C31.9994 25.6918 24.8364 32.8549 15.9997 32.8549C7.16308 32.8549 0 25.6918 0 16.8552C0 8.01854 7.16308 0.855469 15.9997 0.855469C18.5517 0.855469 20.9676 1.45386 23.1116 2.51944C23.3013 2.61198 23.4709 2.74116 23.6105 2.89953C23.7501 3.0579 23.8569 3.24233 23.9249 3.44219C23.9929 3.64205 24.0207 3.85339 24.0066 4.06402C23.9926 4.27466 23.937 4.48044 23.843 4.66949C23.7491 4.85854 23.6186 5.02713 23.4593 5.16555C23.2999 5.30396 23.1146 5.40947 22.9143 5.47598C22.7139 5.54249 22.5024 5.56869 22.2919 5.55307C22.0813 5.53746 21.876 5.48033 21.6876 5.38499C19.9202 4.50729 17.9731 4.05213 15.9997 4.05541Z" fill="#333333"/>
<path fill-rule="evenodd" clip-rule="evenodd" d="M31.7801 5.64864C31.886 5.83016 31.9552 6.03078 31.9835 6.23903C32.0119 6.44729 31.999 6.65909 31.9455 6.86235C31.892 7.06561 31.799 7.25634 31.6718 7.42365C31.5446 7.59095 31.3856 7.73154 31.2041 7.8374L30.8489 8.0438C25.0972 11.3989 20.476 16.3922 17.5755 22.3859C17.4644 22.6157 17.2999 22.8156 17.0958 22.9688C16.8917 23.122 16.6538 23.2242 16.4022 23.2668C16.1505 23.3094 15.8923 23.2912 15.6492 23.2136C15.406 23.1361 15.1849 23.0015 15.0043 22.8211L8.58366 16.4053C8.42728 16.2586 8.30196 16.082 8.21515 15.886C8.12834 15.69 8.08182 15.4785 8.07834 15.2641C8.07486 15.0498 8.11449 14.8369 8.19489 14.6382C8.27528 14.4394 8.3948 14.2588 8.54635 14.1072C8.69789 13.9556 8.87836 13.8359 9.07705 13.7554C9.27573 13.6748 9.48858 13.635 9.70294 13.6384C9.9173 13.6417 10.1288 13.6881 10.3249 13.7747C10.521 13.8614 10.6977 13.9866 10.8444 14.1429L15.7243 19.018C18.9239 13.3164 23.5887 8.57324 29.2361 5.27905L29.5913 5.07265C29.7728 4.9667 29.9734 4.89755 30.1817 4.86916C30.3899 4.84077 30.6018 4.85368 30.805 4.90717C31.0083 4.96066 31.199 5.05367 31.3663 5.1809C31.5336 5.30812 31.6742 5.46706 31.7801 5.64864Z" fill="#32949B"/>
</svg>
