<svg width="32" height="33" viewBox="0 0 32 33" fill="none" xmlns="http://www.w3.org/2000/svg">
<path d="M29.559 23.2906C30.0571 23.5254 30.6546 23.3143 30.8597 22.8032C31.6174 20.9152 32.0057 18.8959 31.9999 16.8554C31.9999 12.612 30.3142 8.54231 27.3137 5.54174C24.3131 2.54117 20.2434 0.855469 16 0.855469C11.7566 0.855469 7.68691 2.54117 4.68634 5.54174C1.68577 8.54231 6.96036e-05 12.612 6.96036e-05 16.8554C-0.00597521 18.8946 0.381771 20.9126 1.13863 22.7994C1.34428 23.3121 1.94432 23.5227 2.44293 23.285L2.56617 23.2262C3.06518 22.9884 3.27284 22.3919 3.07142 21.8771C2.70794 20.9481 2.44719 19.9821 2.29378 18.9966C2.20427 18.4215 2.6666 17.9254 3.24864 17.9254H4.48633C4.99955 17.9254 5.42439 18.3152 5.51913 18.8196C5.90499 20.8739 6.8866 22.7752 8.34808 24.2824C8.46926 24.4074 8.54003 24.5735 8.54003 24.7475C8.54003 25.1053 8.24999 25.3954 7.89221 25.3954H5.71005C5.06662 25.3873 4.43579 25.5739 3.90039 25.9309C3.36499 26.2878 2.95005 26.7983 2.71006 27.3954L2.28006 28.4654C2.08458 28.9532 2.01229 29.4818 2.06957 30.0042C2.12685 30.5267 2.31195 31.027 2.60849 31.461C2.90504 31.8949 3.30391 32.2491 3.76985 32.4923C4.2358 32.7355 4.75448 32.8602 5.28005 32.8553H26.72C27.2455 32.8602 27.7642 32.7355 28.2302 32.4923C28.6961 32.2491 29.095 31.8949 29.3915 31.461C29.6881 31.027 29.8731 30.5267 29.9304 30.0042C29.9877 29.4818 29.9154 28.9532 29.7199 28.4654L29.2899 27.3954C29.05 26.7983 28.635 26.2878 28.0996 25.9309C27.5642 25.5739 26.9334 25.3873 26.29 25.3954H24.1178C23.76 25.3954 23.47 25.1053 23.47 24.7475C23.47 24.5735 23.5407 24.4074 23.6619 24.2824C25.1234 22.7752 26.105 20.8739 26.4909 18.8196C26.5856 18.3152 27.0105 17.9254 27.5237 17.9254H28.7522C29.3339 17.9254 29.7961 18.421 29.7072 18.9959C29.5543 19.9838 29.2936 20.952 28.9298 21.8833C28.7281 22.3996 28.9378 22.9977 29.4392 23.2341L29.559 23.2906ZM26.29 27.5254C26.5049 27.5225 26.7157 27.585 26.8943 27.7046C27.0729 27.8243 27.2109 27.9954 27.29 28.1954L27.72 29.2654C27.7836 29.4278 27.8065 29.6034 27.7866 29.7768C27.7668 29.9501 27.7049 30.116 27.6063 30.26C27.5077 30.404 27.3754 30.5216 27.2209 30.6027C27.0664 30.6838 26.8944 30.7259 26.72 30.7253H5.28005C5.10556 30.7259 4.93357 30.6838 4.77907 30.6027C4.62458 30.5216 4.49226 30.404 4.39366 30.26C4.29506 30.116 4.23316 29.9501 4.21336 29.7768C4.19355 29.6034 4.21645 29.4278 4.28005 29.2654L4.70005 28.1954C4.77913 27.9954 4.91712 27.8243 5.09572 27.7046C5.27432 27.585 5.48508 27.5225 5.70005 27.5254H26.29ZM11.6691 25.3863C11.1172 25.3858 10.67 24.9382 10.67 24.3863V24.3254C10.67 24.0416 10.7828 23.7694 10.9834 23.5688C11.1841 23.3681 11.4562 23.2554 11.74 23.2554H20.27C20.5538 23.2554 20.8259 23.3681 21.0266 23.5688C21.2272 23.7694 21.34 24.0416 21.34 24.3254V24.3944C21.34 24.9471 20.8917 25.3949 20.339 25.3944L11.6691 25.3863ZM22.6596 22.1954C22.6636 22.1954 22.6658 22.1906 22.6631 22.1877C22.3644 21.854 21.9987 21.5869 21.5898 21.4038C21.1778 21.2194 20.7314 21.1245 20.28 21.1254H11.73C11.2786 21.1245 10.8322 21.2194 10.4202 21.4038C10.3698 21.4264 10.3202 21.4502 10.2712 21.4752C9.71998 21.7571 8.98252 21.7553 8.66579 21.2233C8.05068 20.1902 7.65857 19.0347 7.52057 17.8313C7.33743 16.2342 7.60932 14.6179 8.30491 13.1686C9.00049 11.7193 10.0914 10.4961 11.452 9.63996C12.8126 8.78379 14.3875 8.32953 15.995 8.32953C17.6026 8.32953 19.1774 8.78379 20.538 9.63996C21.8986 10.4961 22.9895 11.7193 23.6851 13.1686C24.3807 14.6179 24.6526 16.2342 24.4694 17.8313C24.2867 19.4252 23.6581 20.9351 22.656 22.1878C22.6536 22.1909 22.6557 22.1954 22.6596 22.1954ZM27.5732 15.7854C27.0602 15.7854 26.6354 15.3958 26.5405 14.8917C26.1102 12.608 24.9438 10.518 23.207 8.94928C21.246 7.178 18.6975 6.19742 16.055 6.19742C13.4125 6.19742 10.864 7.178 8.90296 8.94928C7.16624 10.518 5.99977 12.608 5.56954 14.8917C5.47456 15.3958 5.04982 15.7854 4.53679 15.7854H3.25406C2.67004 15.7854 2.20711 15.286 2.29941 14.7093C2.78963 11.6465 4.29525 8.82451 6.59044 6.70718C9.15217 4.34397 12.5097 3.03183 15.995 3.03183C19.4803 3.03183 22.8378 4.34397 25.3996 6.70718C27.6948 8.82451 29.2004 11.6465 29.6906 14.7093C29.7829 15.286 29.32 15.7854 28.7359 15.7854H27.5732Z" fill="#333333"/>
</svg>
